<svg width="169" height="153" viewBox="0 0 169 153" fill="none" xmlns="http://www.w3.org/2000/svg">
<path d="M167.645 10.1459C167.89 10.0175 167.984 9.71529 167.856 9.47078L165.764 5.48638C165.636 5.24188 165.333 5.14771 165.089 5.27606C164.844 5.40441 164.75 5.70666 164.879 5.95116L166.738 9.49286L163.196 11.352C162.952 11.4803 162.857 11.7826 162.986 12.0271C163.114 12.2716 163.416 12.3658 163.661 12.2374L167.645 10.1459ZM1.40913 144.507C1.67575 144.579 1.95018 144.421 2.02209 144.155C2.094 143.888 1.93617 143.614 1.66955 143.542L1.40913 144.507ZM7.79606 145.13C7.52807 145.064 7.25683 145.227 7.19024 145.495C7.12365 145.763 7.28692 146.034 7.55491 146.101L7.79606 145.13ZM8.5531 146.347C8.82132 146.413 9.09199 146.248 9.15765 145.98C9.22331 145.712 9.05911 145.441 8.79088 145.376L8.5531 146.347ZM14.6046 146.733C14.335 146.674 14.068 146.844 14.0082 147.113C13.9484 147.383 14.1185 147.65 14.3881 147.71L14.6046 146.733ZM15.3351 147.918C15.6049 147.977 15.8713 147.806 15.9301 147.536C15.9888 147.266 15.8178 147 15.548 146.941L15.3351 147.918ZM21.4947 148.158C21.2234 148.106 20.9616 148.284 20.9098 148.555C20.858 148.826 21.0359 149.088 21.3072 149.14L21.4947 148.158ZM22.3449 149.335C22.6164 149.386 22.8774 149.207 22.9278 148.935C22.9782 148.664 22.799 148.403 22.5275 148.352L22.3449 149.335ZM28.5264 149.373C28.2535 149.331 27.9982 149.519 27.9561 149.791C27.9141 150.064 28.1013 150.32 28.3743 150.362L28.5264 149.373ZM29.3468 150.509C29.6199 150.549 29.8742 150.361 29.9147 150.088C29.9552 149.814 29.7667 149.56 29.4935 149.52L29.3468 150.509ZM35.4095 150.29C35.1351 150.259 34.8879 150.457 34.8574 150.731C34.8269 151.006 35.0247 151.253 35.2992 151.284L35.4095 150.29ZM36.3588 151.397C36.6334 151.426 36.8792 151.226 36.9077 150.952C36.9362 150.677 36.7366 150.431 36.462 150.403L36.3588 151.397ZM42.5222 150.895C42.2465 150.879 42.0102 151.09 41.9944 151.366C41.9786 151.641 42.1893 151.878 42.465 151.894L42.5222 150.895ZM43.4414 151.946C43.7172 151.959 43.9518 151.746 43.9653 151.471C43.9789 151.195 43.7662 150.96 43.4904 150.947L43.4414 151.946ZM49.541 151.075C49.2649 151.077 49.043 151.303 49.0454 151.579C49.0478 151.855 49.2737 152.077 49.5498 152.075L49.541 151.075ZM50.5946 152.06C50.8707 152.054 51.09 151.826 51.0845 151.55C51.079 151.274 50.8507 151.054 50.5746 151.06L50.5946 152.06ZM56.4536 150.738C56.1786 150.763 55.9763 151.007 56.0018 151.281C56.0273 151.556 56.2708 151.759 56.5458 151.733L56.4536 150.738ZM57.5153 151.637C57.7899 151.608 57.9889 151.362 57.9597 151.087C57.9306 150.812 57.6843 150.613 57.4097 150.643L57.5153 151.637ZM63.5081 149.699C63.2377 149.756 63.0642 150.02 63.1205 150.291C63.1768 150.561 63.4415 150.735 63.7119 150.678L63.5081 149.699ZM64.6775 150.468C64.9468 150.407 65.1155 150.139 65.0544 149.87C64.9933 149.601 64.7254 149.432 64.4561 149.493L64.6775 150.468ZM70.2325 147.801C69.9732 147.896 69.8402 148.183 69.9353 148.443C70.0304 148.702 70.3177 148.835 70.5769 148.74L70.2325 147.801ZM71.5294 148.377C71.7862 148.276 71.9123 147.986 71.8109 147.729C71.7096 147.472 71.4192 147.346 71.1623 147.447L71.5294 148.377ZM76.505 144.836C76.2679 144.977 76.1905 145.284 76.3321 145.521C76.4737 145.758 76.7807 145.836 77.0178 145.694L76.505 144.836ZM77.8955 145.152C78.1282 145.003 78.1963 144.694 78.0476 144.461C77.8989 144.229 77.5898 144.161 77.3571 144.309L77.8955 145.152ZM82.0348 140.663C81.8343 140.853 81.8257 141.169 82.0155 141.37C82.2054 141.57 82.5218 141.579 82.7224 141.389L82.0348 140.663ZM83.4591 140.668C83.6533 140.472 83.6516 140.155 83.4553 139.961C83.259 139.767 82.9424 139.769 82.7482 139.965L83.4591 140.668ZM86.5011 135.359C86.3476 135.588 86.4092 135.899 86.6387 136.052C86.8682 136.206 87.1787 136.144 87.3323 135.915L86.5011 135.359ZM87.8903 135.053C88.0369 134.819 87.966 134.51 87.732 134.364C87.4979 134.217 87.1894 134.288 87.0428 134.522L87.8903 135.053ZM89.7745 129.215C89.6679 129.47 89.7879 129.763 90.0427 129.869C90.2974 129.976 90.5903 129.856 90.6969 129.601L89.7745 129.215ZM91.0807 128.652C91.1811 128.395 91.054 128.105 90.7967 128.004C90.5395 127.904 90.2496 128.031 90.1491 128.288L91.0807 128.652ZM91.9598 122.568C91.8925 122.835 92.0551 123.107 92.3229 123.174C92.5907 123.242 92.8624 123.079 92.9297 122.811L91.9598 122.568ZM93.1693 121.82C93.2318 121.551 93.0643 121.282 92.7954 121.22C92.5264 121.157 92.2577 121.325 92.1952 121.594L93.1693 121.82ZM93.2728 115.661C93.2355 115.935 93.4271 116.187 93.7007 116.224C93.9743 116.262 94.2264 116.07 94.2636 115.796L93.2728 115.661ZM94.394 114.79C94.4277 114.516 94.2328 114.267 93.9588 114.233C93.6847 114.199 93.4352 114.394 93.4015 114.668L94.394 114.79ZM93.9286 108.636C93.9134 108.912 94.1245 109.148 94.4003 109.163C94.676 109.178 94.9118 108.967 94.927 108.691L93.9286 108.636ZM94.9778 107.684C94.9905 107.408 94.7771 107.174 94.5012 107.162C94.2254 107.149 93.9915 107.362 93.9789 107.638L94.9778 107.684ZM94.1026 101.564C94.1033 101.84 94.3278 102.063 94.6039 102.063C94.88 102.062 95.1033 101.837 95.1026 101.561L94.1026 101.564ZM95.0965 100.557C95.0939 100.281 94.868 100.059 94.5919 100.061C94.3157 100.064 94.094 100.29 94.0966 100.566L95.0965 100.557ZM93.9311 94.4934C93.943 94.7693 94.1764 94.9832 94.4523 94.9712C94.7282 94.9592 94.9421 94.7259 94.9301 94.45L93.9311 94.4934ZM94.8838 93.4369C94.8705 93.1611 94.6362 92.9483 94.3604 92.9615C94.0845 92.9748 93.8717 93.2091 93.8849 93.485L94.8838 93.4369ZM93.5213 87.4436C93.5408 87.7191 93.78 87.9266 94.0554 87.907C94.3309 87.8875 94.5383 87.6484 94.5188 87.3729L93.5213 87.4436ZM94.4451 86.3554C94.4248 86.08 94.185 85.8733 93.9097 85.8936C93.6343 85.914 93.4275 86.1537 93.4479 86.4291L94.4451 86.3554ZM92.9564 80.3829C92.9804 80.658 93.2229 80.8615 93.498 80.8374C93.7731 80.8134 93.9766 80.5709 93.9526 80.2958L92.9564 80.3829ZM93.8635 79.2855C93.839 79.0104 93.5962 78.8073 93.3211 78.8318C93.0461 78.8562 92.8429 79.099 92.8674 79.3741L93.8635 79.2855ZM92.3096 73.3182C92.3355 73.5931 92.5793 73.795 92.8542 73.7691C93.1292 73.7433 93.3311 73.4994 93.3052 73.2245L92.3096 73.3182ZM93.2103 72.216C93.1844 71.941 92.9405 71.7392 92.6656 71.7651C92.3906 71.791 92.1888 72.0348 92.2147 72.3098L93.2103 72.216ZM91.6504 66.2568C91.6755 66.5318 91.9187 66.7344 92.1937 66.7094C92.4687 66.6844 92.6714 66.4411 92.6463 66.1661L91.6504 66.2568ZM92.5548 65.1536C92.5301 64.8785 92.2871 64.6756 92.0121 64.7003C91.7371 64.725 91.5341 64.9679 91.5588 65.243L92.5548 65.1536ZM91.049 59.2036C91.0704 59.4789 91.311 59.6847 91.5863 59.6633C91.8616 59.6419 92.0674 59.4014 92.046 59.126L91.049 59.2036ZM91.968 58.1041C91.9474 57.8287 91.7074 57.6222 91.4321 57.6428C91.1567 57.6634 90.9502 57.9034 90.9708 58.1787L91.968 58.1041ZM90.5788 52.1028C90.5932 52.3786 90.8285 52.5904 91.1043 52.5759C91.3801 52.5614 91.5919 52.3261 91.5774 52.0503L90.5788 52.1028ZM91.5274 51.0562C91.5142 50.7803 91.2799 50.5674 91.0041 50.5807C90.7282 50.5939 90.5154 50.8282 90.5286 51.104L91.5274 51.0562ZM90.3374 44.9818C90.3408 45.2579 90.5674 45.479 90.8436 45.4755C91.1197 45.4721 91.3407 45.2455 91.3373 44.9694L90.3374 44.9818ZM91.3285 43.9738C91.327 43.6977 91.102 43.475 90.8258 43.4765C90.5497 43.4779 90.327 43.703 90.3285 43.9791L91.3285 43.9738ZM90.4501 37.8536C90.4368 38.1295 90.6497 38.3638 90.9255 38.3771C91.2013 38.3903 91.4357 38.1775 91.4489 37.9016L90.4501 37.8536ZM91.502 36.9067C91.5182 36.631 91.3078 36.3945 91.0322 36.3783C90.7565 36.3621 90.5199 36.5724 90.5037 36.8481L91.502 36.9067ZM91.0911 30.7476C91.0532 31.0211 91.2442 31.2736 91.5177 31.3115C91.7912 31.3495 92.0437 31.1585 92.0817 30.8849L91.0911 30.7476ZM92.226 29.9005C92.2683 29.6276 92.0813 29.3721 91.8084 29.3299C91.5355 29.2876 91.2801 29.4746 91.2378 29.7475L92.226 29.9005ZM92.5114 23.7449C92.4374 24.011 92.5932 24.2866 92.8592 24.3606C93.1253 24.4345 93.4009 24.2788 93.4749 24.0127L92.5114 23.7449ZM93.7509 23.0626C93.831 22.7984 93.6818 22.5192 93.4175 22.439C93.1533 22.3588 92.8741 22.5081 92.7939 22.7723L93.7509 23.0626ZM95.0513 17.0532C94.9273 17.2999 95.0267 17.6005 95.2735 17.7245C95.5202 17.8485 95.8207 17.7491 95.9448 17.5024L95.0513 17.0532ZM96.4008 16.6315C96.5329 16.389 96.4435 16.0853 96.2011 15.9532C95.9586 15.821 95.6549 15.9104 95.5227 16.1529L96.4008 16.6315ZM99.0542 11.0968C98.8707 11.3032 98.8893 11.6193 99.0957 11.8027C99.302 11.9862 99.6181 11.9676 99.8016 11.7613L99.0542 11.0968ZM100.476 11.0328C100.668 10.8341 100.663 10.5176 100.464 10.3258C100.265 10.134 99.9488 10.1396 99.757 10.3383L100.476 11.0328ZM104.572 6.45023C104.337 6.59639 104.266 6.9048 104.412 7.13909C104.558 7.37338 104.867 7.44483 105.101 7.29866L104.572 6.45023ZM105.928 6.80416C106.168 6.66687 106.25 6.36135 106.113 6.12175C105.976 5.88215 105.67 5.79922 105.431 5.9365L105.928 6.80416ZM111.124 3.44274C110.861 3.52789 110.717 3.80987 110.802 4.07256C110.887 4.33524 111.169 4.47916 111.432 4.394L111.124 3.44274ZM112.324 4.11858C112.588 4.04067 112.74 3.76276 112.662 3.49783C112.584 3.2329 112.306 3.08129 112.041 3.15919L112.324 4.11858ZM118.072 1.88987C117.798 1.92741 117.607 2.17962 117.644 2.4532C117.682 2.72678 117.934 2.91813 118.207 2.88059L118.072 1.88987ZM119.239 2.75039C119.514 2.71875 119.711 2.47072 119.679 2.1964C119.647 1.92207 119.399 1.72534 119.125 1.75698L119.239 2.75039ZM125.079 1.39235C124.803 1.39576 124.582 1.62237 124.585 1.89849C124.589 2.17461 124.815 2.39569 125.091 2.39228L125.079 1.39235ZM126.137 2.38747C126.413 2.38831 126.638 2.16513 126.638 1.88899C126.639 1.61285 126.416 1.38831 126.14 1.38747L126.137 2.38747ZM132.163 1.64148C131.887 1.61996 131.647 1.8257 131.625 2.101C131.604 2.37631 131.809 2.61692 132.085 2.63844L132.163 1.64148ZM133.071 2.72089C133.346 2.74535 133.589 2.54219 133.614 2.26714C133.638 1.99208 133.435 1.74928 133.16 1.72482L133.071 2.72089ZM139.461 2.47968C139.188 2.43913 138.933 2.62768 138.893 2.90083C138.852 3.17397 139.041 3.42828 139.314 3.46884L139.461 2.47968ZM140.234 3.60907C140.507 3.65169 140.763 3.46506 140.805 3.19223C140.848 2.91939 140.661 2.66367 140.389 2.62105L140.234 3.60907ZM146.191 3.6573C145.92 3.60323 145.657 3.77892 145.603 4.04971C145.549 4.32051 145.724 4.58387 145.995 4.63794L146.191 3.6573ZM146.996 4.84113C147.266 4.89697 147.53 4.723 147.586 4.45256C147.642 4.18212 147.468 3.91762 147.198 3.86179L146.996 4.84113ZM153.333 5.24679C153.065 5.18134 152.794 5.34576 152.729 5.61403C152.663 5.8823 152.828 6.15284 153.096 6.2183L153.333 5.24679ZM154.013 6.44445C154.281 6.5112 154.552 6.34809 154.619 6.08013C154.686 5.81218 154.523 5.54085 154.255 5.4741L154.013 6.44445ZM159.969 6.98298C159.703 6.90894 159.427 7.06458 159.353 7.33061C159.279 7.59664 159.435 7.87233 159.701 7.94637L159.969 6.98298ZM160.68 8.22112C160.946 8.29631 161.222 8.14185 161.297 7.87614C161.372 7.61043 161.218 7.33408 160.952 7.2589L160.68 8.22112ZM167.039 9.06371C166.776 8.98208 166.496 9.12976 166.414 9.39356C166.332 9.65737 166.48 9.93739 166.744 10.019L167.039 9.06371ZM0.884756 144.365C1.05986 144.413 1.23466 144.46 1.40913 144.507L1.66955 143.542C1.49559 143.495 1.32131 143.448 1.14671 143.4L0.884756 144.365ZM7.55491 146.101C7.88887 146.184 8.2216 146.266 8.5531 146.347L8.79088 145.376C8.46052 145.295 8.12891 145.213 7.79606 145.13L7.55491 146.101ZM14.3881 147.71C14.7049 147.78 15.0206 147.849 15.3351 147.918L15.548 146.941C15.2347 146.873 14.9203 146.803 14.6046 146.733L14.3881 147.71ZM21.3072 149.14C21.6547 149.206 22.0006 149.271 22.3449 149.335L22.5275 148.352C22.1848 148.289 21.8405 148.224 21.4947 148.158L21.3072 149.14ZM28.3743 150.362C28.7 150.412 29.0241 150.461 29.3468 150.509L29.4935 149.52C29.1727 149.472 28.8503 149.423 28.5264 149.373L28.3743 150.362ZM35.2992 151.284C35.6544 151.323 36.0076 151.361 36.3588 151.397L36.462 150.403C36.1132 150.367 35.7624 150.329 35.4095 150.29L35.2992 151.284ZM42.465 151.894C42.7924 151.912 43.1178 151.93 43.4414 151.946L43.4904 150.947C43.1697 150.931 42.8469 150.914 42.5222 150.895L42.465 151.894ZM49.5498 152.075C49.9006 152.072 50.2489 152.067 50.5946 152.06L50.5746 151.06C50.2327 151.067 49.8882 151.072 49.541 151.075L49.5498 152.075ZM56.5458 151.733C56.8715 151.703 57.1947 151.671 57.5153 151.637L57.4097 150.643C57.0936 150.676 56.7749 150.708 56.4536 150.738L56.5458 151.733ZM63.7119 150.678C64.0369 150.611 64.3588 150.541 64.6775 150.468L64.4561 149.493C64.1433 149.564 63.8273 149.633 63.5081 149.699L63.7119 150.678ZM70.5769 148.74C70.8983 148.622 71.2158 148.501 71.5294 148.377L71.1623 147.447C70.8563 147.568 70.5464 147.686 70.2325 147.801L70.5769 148.74ZM77.0178 145.694C77.3148 145.517 77.6074 145.336 77.8955 145.152L77.3571 144.309C77.0775 144.488 76.7935 144.663 76.505 144.836L77.0178 145.694ZM82.7224 141.389C82.9726 141.152 83.2182 140.912 83.4591 140.668L82.7482 139.965C82.5149 140.201 82.2771 140.433 82.0348 140.663L82.7224 141.389ZM87.3323 135.915C87.5225 135.63 87.7085 135.343 87.8903 135.053L87.0428 134.522C86.8663 134.804 86.6857 135.083 86.5011 135.359L87.3323 135.915ZM90.6969 129.601C90.8284 129.287 90.9562 128.971 91.0807 128.652L90.1491 128.288C90.0276 128.6 89.9027 128.909 89.7745 129.215L90.6969 129.601ZM92.9297 122.811C93.0123 122.483 93.0921 122.152 93.1693 121.82L92.1952 121.594C92.1194 121.92 92.0409 122.245 91.9598 122.568L92.9297 122.811ZM94.2636 115.796C94.3092 115.462 94.3526 115.127 94.394 114.79L93.4015 114.668C93.3606 115.001 93.3177 115.332 93.2728 115.661L94.2636 115.796ZM94.927 108.691C94.9455 108.356 94.9624 108.021 94.9778 107.684L93.9789 107.638C93.9636 107.972 93.9469 108.305 93.9286 108.636L94.927 108.691ZM95.1026 101.561C95.1017 101.227 95.0996 100.892 95.0965 100.557L94.0966 100.566C94.0997 100.899 94.1017 101.232 94.1026 101.564L95.1026 101.561ZM94.9301 94.45C94.9155 94.1128 94.9 93.7751 94.8838 93.4369L93.8849 93.485C93.9011 93.8216 93.9165 94.1577 93.9311 94.4934L94.9301 94.45ZM94.5188 87.3729C94.4948 87.034 94.4702 86.6948 94.4451 86.3554L93.4479 86.4291C93.4729 86.7676 93.4974 87.1058 93.5213 87.4436L94.5188 87.3729ZM93.9526 80.2958C93.9231 79.9591 93.8934 79.6223 93.8635 79.2855L92.8674 79.3741C92.8973 79.7104 92.927 80.0467 92.9564 80.3829L93.9526 80.2958ZM93.3052 73.2245C93.2736 72.8882 93.2419 72.552 93.2103 72.216L92.2147 72.3098C92.2463 72.6458 92.278 72.9819 92.3096 73.3182L93.3052 73.2245ZM92.6463 66.1661C92.6156 65.8283 92.5851 65.4908 92.5548 65.1536L91.5588 65.243C91.5891 65.5806 91.6197 65.9185 91.6504 66.2568L92.6463 66.1661ZM92.046 59.126C92.0195 58.7848 91.9935 58.4442 91.968 58.1041L90.9708 58.1787C90.9963 58.5198 91.0224 58.8614 91.049 59.2036L92.046 59.126ZM91.5774 52.0503C91.5599 51.7182 91.5433 51.3868 91.5274 51.0562L90.5286 51.104C90.5445 51.4362 90.5612 51.7692 90.5788 52.1028L91.5774 52.0503ZM91.3373 44.9694C91.3332 44.6364 91.3302 44.3046 91.3285 43.9738L90.3285 43.9791C90.3302 44.3123 90.3332 44.6465 90.3374 44.9818L91.3373 44.9694ZM91.4489 37.9016C91.4649 37.5685 91.4826 37.2369 91.502 36.9067L90.5037 36.8481C90.4841 37.1819 90.4663 37.5171 90.4501 37.8536L91.4489 37.9016ZM92.0817 30.8849C92.1274 30.5547 92.1755 30.2266 92.226 29.9005L91.2378 29.7475C91.1865 30.0789 91.1376 30.4123 91.0911 30.7476L92.0817 30.8849ZM93.4749 24.0127C93.5637 23.6933 93.6556 23.3765 93.7509 23.0626L92.7939 22.7723C92.6964 23.0939 92.6022 23.4181 92.5114 23.7449L93.4749 24.0127ZM95.9448 17.5024C96.0925 17.2085 96.2445 16.9181 96.4008 16.6315L95.5227 16.1529C95.3611 16.4494 95.204 16.7496 95.0513 17.0532L95.9448 17.5024ZM99.8016 11.7613C100.021 11.5141 100.246 11.2713 100.476 11.0328L99.757 10.3383C99.5172 10.5867 99.2829 10.8396 99.0542 11.0968L99.8016 11.7613ZM105.101 7.29866C105.372 7.12986 105.647 6.96501 105.928 6.80416L105.431 5.9365C105.139 6.10352 104.853 6.27478 104.572 6.45023L105.101 7.29866ZM111.432 4.394C111.725 4.299 112.022 4.20718 112.324 4.11858L112.041 3.15919C111.731 3.25035 111.426 3.34487 111.124 3.44274L111.432 4.394ZM118.207 2.88059C118.547 2.83396 118.891 2.79055 119.239 2.75039L119.125 1.75698C118.77 1.79794 118.419 1.84225 118.072 1.88987L118.207 2.88059ZM125.091 2.39228C125.436 2.38801 125.785 2.3864 126.137 2.38747L126.14 1.38747C125.783 1.38639 125.429 1.38802 125.079 1.39235L125.091 2.39228ZM132.085 2.63844C132.411 2.66395 132.74 2.69143 133.071 2.72089L133.16 1.72482C132.825 1.69504 132.493 1.66727 132.163 1.64148L132.085 2.63844ZM139.314 3.46884C139.619 3.51411 139.926 3.56086 140.234 3.60907L140.389 2.62105C140.077 2.57245 139.768 2.52533 139.461 2.47968L139.314 3.46884ZM145.995 4.63794C146.327 4.70414 146.66 4.77187 146.996 4.84113L147.198 3.86179C146.86 3.79209 146.525 3.72393 146.191 3.6573L145.995 4.63794ZM153.096 6.2183C153.4 6.29254 153.706 6.36792 154.013 6.44445L154.255 5.4741C153.946 5.39719 153.639 5.32142 153.333 5.24679L153.096 6.2183ZM159.701 7.94637C160.026 8.03678 160.352 8.12836 160.68 8.22112L160.952 7.2589C160.623 7.16575 160.295 7.07378 159.969 6.98298L159.701 7.94637ZM166.744 10.019C166.917 10.0726 167.09 10.1264 167.264 10.1805L167.562 9.22581C167.387 9.17147 167.213 9.11744 167.039 9.06371L166.744 10.019ZM167.878 10.5886C168.367 10.3319 168.555 9.7274 168.298 9.23839L164.115 1.26958C163.859 0.780573 163.254 0.592247 162.765 0.848941C162.276 1.10563 162.088 1.71014 162.344 2.19915L166.063 9.28254L158.979 13.0008C158.49 13.2575 158.302 13.862 158.559 14.351C158.815 14.84 159.42 15.0284 159.909 14.7717L167.878 10.5886ZM1.27892 144.99C1.81215 145.134 2.36101 144.818 2.50484 144.285C2.64866 143.752 2.33299 143.203 1.79976 143.059L1.27892 144.99ZM7.91663 144.645C7.38065 144.512 6.83818 144.838 6.705 145.374C6.57181 145.91 6.89835 146.453 7.43433 146.586L7.91663 144.645ZM8.43421 146.833C8.97065 146.964 9.51199 146.636 9.64331 146.099C9.77463 145.563 9.44622 145.021 8.90977 144.89L8.43421 146.833ZM14.7129 146.245C14.1737 146.126 13.6397 146.466 13.5201 147.005C13.4005 147.544 13.7406 148.078 14.2798 148.198L14.7129 146.245ZM15.2287 148.406C15.7683 148.524 16.3011 148.182 16.4186 147.642C16.5362 147.103 16.194 146.57 15.6544 146.452L15.2287 148.406ZM21.5884 147.667C21.0459 147.563 20.5222 147.919 20.4186 148.461C20.3151 149.004 20.671 149.528 21.2135 149.631L21.5884 147.667ZM22.2535 149.827C22.7965 149.928 23.3185 149.569 23.4194 149.026C23.5203 148.483 23.1619 147.961 22.6189 147.861L22.2535 149.827ZM28.6025 148.879C28.0566 148.795 27.546 149.17 27.462 149.715C27.3779 150.261 27.7523 150.772 28.2982 150.856L28.6025 148.879ZM29.2734 151.003C29.8197 151.084 30.3283 150.707 30.4093 150.161C30.4903 149.615 30.1132 149.106 29.5669 149.025L29.2734 151.003ZM35.4647 149.793C34.9158 149.732 34.4214 150.127 34.3604 150.676C34.2995 151.225 34.6951 151.72 35.244 151.781L35.4647 149.793ZM36.3071 151.895C36.8565 151.952 37.348 151.553 37.405 151.003C37.462 150.454 37.0629 149.962 36.5136 149.905L36.3071 151.895ZM42.5508 150.396C41.9994 150.364 41.5268 150.786 41.4952 151.337C41.4636 151.889 41.8849 152.361 42.4363 152.393L42.5508 150.396ZM43.4169 152.445C43.9685 152.472 44.4376 152.047 44.4647 151.495C44.4918 150.944 44.0666 150.474 43.515 150.447L43.4169 152.445ZM49.5366 150.575C48.9844 150.58 48.5406 151.031 48.5454 151.583C48.5503 152.136 49.0019 152.58 49.5542 152.575L49.5366 150.575ZM50.6045 152.56C51.1567 152.549 51.5954 152.092 51.5844 151.54C51.5734 150.988 51.1168 150.549 50.5647 150.56L50.6045 152.56ZM56.4075 150.24C55.8576 150.291 55.453 150.778 55.5039 151.328C55.5548 151.877 56.0419 152.282 56.5919 152.231L56.4075 150.24ZM57.568 152.134C58.1172 152.076 58.5152 151.583 58.4569 151.034C58.3986 150.485 57.9062 150.087 57.357 150.145L57.568 152.134ZM63.4062 149.21C62.8655 149.322 62.5184 149.852 62.631 150.393C62.7435 150.933 63.2731 151.28 63.8138 151.168L63.4062 149.21ZM64.7882 150.956C65.3268 150.834 65.6643 150.298 65.542 149.759C65.4197 149.221 64.884 148.883 64.3454 149.005L64.7882 150.956ZM70.0602 147.332C69.5417 147.522 69.2756 148.096 69.4659 148.615C69.6561 149.133 70.2307 149.4 70.7491 149.209L70.0602 147.332ZM71.7129 148.842C72.2266 148.64 72.4788 148.059 72.276 147.545C72.0733 147.031 71.4925 146.779 70.9788 146.982L71.7129 148.842ZM76.2486 144.406C75.7745 144.69 75.6197 145.304 75.9029 145.778C76.1861 146.252 76.8 146.407 77.2742 146.124L76.2486 144.406ZM78.1647 145.573C78.6301 145.276 78.7663 144.658 78.469 144.192C78.1716 143.727 77.5533 143.591 77.0879 143.888L78.1647 145.573ZM81.6911 140.3C81.29 140.679 81.2727 141.312 81.6524 141.713C82.0322 142.114 82.6651 142.132 83.0661 141.752L81.6911 140.3ZM83.8146 141.02C84.203 140.627 84.1996 139.994 83.8069 139.606C83.4143 139.217 82.7811 139.221 82.3927 139.613L83.8146 141.02ZM86.0856 135.081C85.7785 135.54 85.9016 136.161 86.3606 136.468C86.8196 136.775 87.4407 136.652 87.7478 136.193L86.0856 135.081ZM88.314 135.318C88.6072 134.85 88.4654 134.233 87.9974 133.94C87.5293 133.647 86.9122 133.789 86.6191 134.257L88.314 135.318ZM89.3132 129.022C89.1 129.531 89.3402 130.117 89.8497 130.331C90.3591 130.544 90.945 130.304 91.1582 129.794L89.3132 129.022ZM91.5464 128.834C91.7473 128.319 91.493 127.739 90.9786 127.539C90.4641 127.338 89.8842 127.592 89.6834 128.106L91.5464 128.834ZM91.4749 122.446C91.3403 122.981 91.6654 123.525 92.201 123.659C92.7367 123.794 93.28 123.469 93.4146 122.933L91.4749 122.446ZM93.6563 121.933C93.7813 121.395 93.4464 120.858 92.9085 120.733C92.3705 120.608 91.8331 120.943 91.7082 121.481L93.6563 121.933ZM92.7774 115.594C92.7028 116.141 93.086 116.645 93.6332 116.72C94.1804 116.794 94.6845 116.411 94.7591 115.864L92.7774 115.594ZM94.8903 114.851C94.9577 114.303 94.568 113.804 94.0198 113.737C93.4717 113.669 92.9726 114.059 92.9052 114.607L94.8903 114.851ZM93.4293 108.609C93.3989 109.16 93.8213 109.632 94.3727 109.662C94.9242 109.693 95.3959 109.27 95.4263 108.719L93.4293 108.609ZM95.4773 107.707C95.5026 107.155 95.0758 106.687 94.5241 106.662C93.9724 106.637 93.5046 107.064 93.4794 107.615L95.4773 107.707ZM93.6026 101.565C93.604 102.117 94.0529 102.564 94.6052 102.563C95.1575 102.561 95.604 102.112 95.6026 101.56L93.6026 101.565ZM95.5965 100.552C95.5913 99.9998 95.1395 99.5563 94.5872 99.5614C94.035 99.5666 93.5914 100.018 93.5966 100.571L95.5965 100.552ZM93.4315 94.515C93.4555 95.0668 93.9222 95.4947 94.474 95.4707C95.0257 95.4468 95.4536 94.9801 95.4297 94.4283L93.4315 94.515ZM95.3832 93.4129C95.3567 92.8613 94.888 92.4356 94.3363 92.4621C93.7847 92.4886 93.359 92.9573 93.3855 93.509L95.3832 93.4129ZM93.0226 87.479C93.0616 88.0299 93.5399 88.4448 94.0908 88.4058C94.6417 88.3667 95.0566 87.8885 95.0176 87.3376L93.0226 87.479ZM94.9438 86.3186C94.9031 85.7678 94.4236 85.3543 93.8728 85.395C93.322 85.4357 92.9085 85.9152 92.9492 86.466L94.9438 86.3186ZM92.4583 80.4264C92.5064 80.9766 92.9914 81.3836 93.5416 81.3355C94.0918 81.2874 94.4988 80.8024 94.4507 80.2522L92.4583 80.4264ZM94.3615 79.2412C94.3125 78.6911 93.8269 78.2848 93.2768 78.3337C92.7267 78.3827 92.3204 78.8683 92.3694 79.4184L94.3615 79.2412ZM91.8118 73.365C91.8635 73.9148 92.3512 74.3187 92.9011 74.2669C93.4509 74.2152 93.8547 73.7275 93.803 73.1777L91.8118 73.365ZM93.7081 72.1691C93.6563 71.6192 93.1685 71.2155 92.6187 71.2673C92.0688 71.3191 91.6651 71.8068 91.7169 72.3567L93.7081 72.1691ZM91.1525 66.3021C91.2026 66.8521 91.689 67.2574 92.239 67.2073C92.789 67.1573 93.1943 66.6708 93.1443 66.1208L91.1525 66.3021ZM93.0528 65.1089C93.0034 64.5588 92.5175 64.1529 91.9674 64.2023C91.4173 64.2516 91.0114 64.7376 91.0608 65.2877L93.0528 65.1089ZM90.5505 59.2423C90.5933 59.7929 91.0744 60.2046 91.625 60.1618C92.1756 60.119 92.5873 59.6379 92.5445 59.0873L90.5505 59.2423ZM92.4666 58.0667C92.4254 57.516 91.9455 57.103 91.3947 57.1442C90.844 57.1854 90.4309 57.6653 90.4722 58.2161L92.4666 58.0667ZM90.0794 52.129C90.1084 52.6806 90.579 53.1042 91.1305 53.0752C91.6821 53.0462 92.1057 52.5756 92.0767 52.0241L90.0794 52.129ZM92.0268 51.0322C92.0004 50.4806 91.5318 50.0548 90.9801 50.0812C90.4285 50.1077 90.0027 50.5763 90.0291 51.1279L92.0268 51.0322ZM89.8374 44.988C89.8443 45.5402 90.2975 45.9824 90.8498 45.9755C91.402 45.9686 91.8441 45.5154 91.8373 44.9632L89.8374 44.988ZM91.8285 43.9711C91.8255 43.4189 91.3754 42.9735 90.8232 42.9765C90.2709 42.9794 89.8256 43.4295 89.8285 43.9817L91.8285 43.9711ZM89.9507 37.8296C89.9241 38.3813 90.3499 38.85 90.9015 38.8765C91.4532 38.903 91.9218 38.4773 91.9484 37.9256L89.9507 37.8296ZM92.0011 36.936C92.0335 36.3847 91.6128 35.9115 91.0615 35.8791C90.5101 35.8468 90.037 36.2675 90.0046 36.8188L92.0011 36.936ZM90.5959 30.6789C90.52 31.226 90.902 31.7309 91.449 31.8068C91.9961 31.8826 92.5011 31.5007 92.5769 30.9536L90.5959 30.6789ZM92.7201 29.977C92.8046 29.4312 92.4307 28.9203 91.8849 28.8358C91.3391 28.7513 90.8282 29.1252 90.7437 29.671L92.7201 29.977ZM92.0296 23.611C91.8817 24.1431 92.1932 24.6944 92.7253 24.8423C93.2574 24.9902 93.8087 24.6787 93.9566 24.1466L92.0296 23.611ZM94.2293 23.2078C94.3897 22.6793 94.0912 22.1209 93.5627 21.9605C93.0342 21.8002 92.4758 22.0987 92.3155 22.6272L94.2293 23.2078ZM94.6046 16.8286C94.3565 17.322 94.5554 17.9231 95.0489 18.1712C95.5423 18.4193 96.1434 18.2204 96.3915 17.727L94.6046 16.8286ZM96.8398 16.8708C97.1041 16.3859 96.9253 15.7785 96.4404 15.5141C95.9555 15.2498 95.3481 15.4286 95.0837 15.9135L96.8398 16.8708ZM98.6805 10.7646C98.3136 11.1774 98.3507 11.8095 98.7635 12.1764C99.1762 12.5434 99.8083 12.5062 100.175 12.0935L98.6805 10.7646ZM100.836 11.3801C101.22 10.9828 101.209 10.3497 100.811 9.96609C100.414 9.5825 99.7808 9.59365 99.3973 9.99099L100.836 11.3801ZM104.307 6.02601C103.839 6.31833 103.696 6.93516 103.988 7.40374C104.28 7.87232 104.897 8.01521 105.366 7.72288L104.307 6.02601ZM106.177 7.23799C106.656 6.96341 106.822 6.35236 106.547 5.87317C106.272 5.39398 105.661 5.2281 105.182 5.50268L106.177 7.23799ZM110.969 2.9671C110.444 3.13741 110.156 3.70137 110.327 4.22674C110.497 4.75211 111.061 5.03994 111.586 4.86963L110.969 2.9671ZM112.465 4.59827C112.994 4.44246 113.298 3.88663 113.142 3.35677C112.986 2.82692 112.43 2.5237 111.9 2.6795L112.465 4.59827ZM118.004 1.39452C117.456 1.46959 117.074 1.97401 117.149 2.52117C117.224 3.06833 117.728 3.45103 118.275 3.37595L118.004 1.39452ZM119.297 3.2471C119.845 3.18382 120.239 2.68776 120.176 2.13911C120.112 1.59046 119.616 1.19699 119.068 1.26027L119.297 3.2471ZM125.073 0.89239C124.521 0.899214 124.078 1.35243 124.085 1.90467C124.092 2.45691 124.545 2.89906 125.097 2.89224L125.073 0.89239ZM126.135 2.88747C126.688 2.88915 127.137 2.44279 127.138 1.89051C127.14 1.33823 126.694 0.889155 126.141 0.887477L126.135 2.88747ZM132.201 1.143C131.651 1.09997 131.17 1.51144 131.127 2.06205C131.084 2.61265 131.495 3.09389 132.046 3.13692L132.201 1.143ZM133.027 3.21893C133.577 3.26784 134.063 2.86153 134.112 2.31141C134.161 1.7613 133.754 1.27569 133.204 1.22679L133.027 3.21893ZM139.534 1.9851C138.988 1.90399 138.479 2.2811 138.398 2.82739C138.317 3.37369 138.694 3.8823 139.24 3.96342L139.534 1.9851ZM140.157 4.10308C140.703 4.18832 141.214 3.81506 141.299 3.26939C141.385 2.72373 141.011 2.21228 140.466 2.12704L140.157 4.10308ZM146.289 3.16698C145.747 3.05883 145.22 3.41021 145.112 3.95181C145.004 4.4934 145.356 5.02012 145.897 5.12826L146.289 3.16698ZM146.894 5.3308C147.435 5.44248 147.964 5.09454 148.076 4.55366C148.188 4.01279 147.84 3.48379 147.299 3.37211L146.894 5.3308ZM153.451 4.76104C152.915 4.63013 152.374 4.95897 152.243 5.49552C152.112 6.03206 152.441 6.57314 152.977 6.70405L153.451 4.76104ZM153.892 6.92962C154.428 7.06312 154.971 6.7369 155.104 6.20099C155.238 5.66508 154.912 5.12242 154.376 4.98893L153.892 6.92962ZM160.103 6.50129C159.571 6.35321 159.02 6.66449 158.872 7.19655C158.724 7.72861 159.035 8.27998 159.567 8.42806L160.103 6.50129ZM160.544 8.70223C161.075 8.8526 161.628 8.54369 161.778 8.01227C161.929 7.48085 161.62 6.92815 161.088 6.77779L160.544 8.70223ZM167.187 8.58605C166.66 8.4228 166.1 8.71816 165.936 9.24577C165.773 9.77337 166.068 10.3334 166.596 10.4967L167.187 8.58605ZM0.753778 144.848C0.929142 144.895 1.10419 144.943 1.27892 144.99L1.79976 143.059C1.62605 143.012 1.45203 142.965 1.27769 142.918L0.753778 144.848ZM7.43433 146.586C7.76886 146.669 8.10215 146.751 8.43421 146.833L8.90977 144.89C8.57997 144.809 8.24893 144.728 7.91663 144.645L7.43433 146.586ZM14.2798 148.198C14.5973 148.268 14.9136 148.338 15.2287 148.406L15.6544 146.452C15.3418 146.384 15.0279 146.315 14.7129 146.245L14.2798 148.198ZM21.2135 149.631C21.5617 149.698 21.9084 149.763 22.2535 149.827L22.6189 147.861C22.277 147.797 21.9335 147.732 21.5884 147.667L21.2135 149.631ZM28.2982 150.856C28.6248 150.906 28.9498 150.955 29.2734 151.003L29.5669 149.025C29.2469 148.978 28.9255 148.929 28.6025 148.879L28.2982 150.856ZM35.244 151.781C35.6004 151.82 35.9548 151.858 36.3071 151.895L36.5136 149.905C36.166 149.869 35.8164 149.832 35.4647 149.793L35.244 151.781ZM42.4363 152.393C42.7651 152.412 43.0919 152.429 43.4169 152.445L43.515 150.447C43.1956 150.432 42.8742 150.415 42.5508 150.396L42.4363 152.393ZM49.5542 152.575C49.9068 152.572 50.2569 152.567 50.6045 152.56L50.5647 150.56C50.2246 150.567 49.8819 150.572 49.5366 150.575L49.5542 152.575ZM56.5919 152.231C56.9198 152.201 57.2452 152.168 57.568 152.134L57.357 150.145C57.0431 150.179 56.7266 150.21 56.4075 150.24L56.5919 152.231ZM63.8138 151.168C64.1417 151.1 64.4665 151.029 64.7882 150.956L64.3454 149.005C64.0355 149.076 63.7225 149.144 63.4062 149.21L63.8138 151.168ZM70.7491 149.209C71.0743 149.09 71.3955 148.968 71.7129 148.842L70.9788 146.982C70.6765 147.101 70.3704 147.218 70.0602 147.332L70.7491 149.209ZM77.2742 146.124C77.5755 145.944 77.8724 145.76 78.1647 145.573L77.0879 143.888C76.8125 144.064 76.5328 144.237 76.2486 144.406L77.2742 146.124ZM83.0661 141.752C83.3203 141.511 83.5698 141.267 83.8146 141.02L82.3927 139.613C82.1632 139.845 81.9294 140.074 81.6911 140.3L83.0661 141.752ZM87.7478 136.193C87.9409 135.904 88.1296 135.613 88.314 135.318L86.6191 134.257C86.4452 134.534 86.2674 134.809 86.0856 135.081L87.7478 136.193ZM91.1582 129.794C91.2912 129.476 91.4206 129.156 91.5464 128.834L89.6834 128.106C89.5633 128.414 89.4399 128.719 89.3132 129.022L91.1582 129.794ZM93.4146 122.933C93.4979 122.602 93.5785 122.268 93.6563 121.933L91.7082 121.481C91.633 121.804 91.5553 122.126 91.4749 122.446L93.4146 122.933ZM94.7591 115.864C94.8049 115.528 94.8486 115.19 94.8903 114.851L92.9052 114.607C92.8646 114.938 92.822 115.267 92.7774 115.594L94.7591 115.864ZM95.4263 108.719C95.4448 108.382 95.4618 108.045 95.4773 107.707L93.4794 107.615C93.4642 107.948 93.4475 108.279 93.4293 108.609L95.4263 108.719ZM95.6026 101.56C95.6017 101.225 95.5996 100.889 95.5965 100.552L93.5966 100.571C93.5997 100.903 93.6017 101.234 93.6026 101.565L95.6026 101.56ZM95.4297 94.4283C95.415 94.0903 95.3995 93.7518 95.3832 93.4129L93.3855 93.509C93.4017 93.8449 93.417 94.1802 93.4315 94.515L95.4297 94.4283ZM95.0176 87.3376C94.9935 86.9982 94.9689 86.6585 94.9438 86.3186L92.9492 86.466C92.9742 86.804 92.9987 87.1416 93.0226 87.479L95.0176 87.3376ZM94.4507 80.2522C94.4212 79.9153 94.3915 79.5782 94.3615 79.2412L92.3694 79.4184C92.3993 79.7545 92.4289 80.0905 92.4583 80.4264L94.4507 80.2522ZM93.803 73.1777C93.7714 72.8414 93.7397 72.5051 93.7081 72.1691L91.7169 72.3567C91.7485 72.6927 91.7802 73.0288 91.8118 73.365L93.803 73.1777ZM93.1443 66.1208C93.1135 65.7832 93.083 65.4458 93.0528 65.1089L91.0608 65.2877C91.0911 65.6255 91.1217 65.9637 91.1525 66.3021L93.1443 66.1208ZM92.5445 59.0873C92.518 58.7465 92.492 58.4063 92.4666 58.0667L90.4722 58.2161C90.4978 58.5577 90.5239 58.8997 90.5505 59.2423L92.5445 59.0873ZM92.0767 52.0241C92.0593 51.6927 92.0426 51.3621 92.0268 51.0322L90.0291 51.1279C90.0451 51.4609 90.0619 51.7946 90.0794 52.129L92.0767 52.0241ZM91.8373 44.9632C91.8332 44.6314 91.8302 44.3007 91.8285 43.9711L89.8285 43.9817C89.8303 44.3162 89.8333 44.6516 89.8374 44.988L91.8373 44.9632ZM91.9484 37.9256C91.9643 37.5942 91.9819 37.2644 92.0011 36.936L90.0046 36.8188C89.9849 37.1544 89.9669 37.4913 89.9507 37.8296L91.9484 37.9256ZM92.5769 30.9536C92.6223 30.626 92.6701 30.3004 92.7201 29.977L90.7437 29.671C90.692 30.0051 90.6427 30.3411 90.5959 30.6789L92.5769 30.9536ZM93.9566 24.1466C94.0444 23.8308 94.1353 23.5179 94.2293 23.2078L92.3155 22.6272C92.2167 22.9525 92.1215 23.2805 92.0296 23.611L93.9566 24.1466ZM96.3915 17.727C96.5368 17.4379 96.6862 17.1525 96.8398 16.8708L95.0837 15.9135C94.9194 16.2151 94.7597 16.5201 94.6046 16.8286L96.3915 17.727ZM100.175 12.0935C100.39 11.8514 100.611 11.6136 100.836 11.3801L99.3973 9.99099C99.1527 10.2444 98.9138 10.5023 98.6805 10.7646L100.175 12.0935ZM105.366 7.72288C105.631 7.5574 105.901 7.39575 106.177 7.23799L105.182 5.50268C104.885 5.67277 104.594 5.84724 104.307 6.02601L105.366 7.72288ZM111.586 4.86963C111.875 4.77606 112.168 4.68559 112.465 4.59827L111.9 2.6795C111.586 2.77193 111.276 2.86781 110.969 2.9671L111.586 4.86963ZM118.275 3.37595C118.612 3.32982 118.952 3.28685 119.297 3.2471L119.068 1.26027C118.709 1.30164 118.354 1.3464 118.004 1.39452L118.275 3.37595ZM125.097 2.89224C125.44 2.888 125.786 2.88641 126.135 2.88747L126.141 0.887477C125.782 0.886385 125.426 0.888029 125.073 0.89239L125.097 2.89224ZM132.046 3.13692C132.37 3.16228 132.697 3.18962 133.027 3.21893L133.204 1.22679C132.868 1.19685 132.533 1.16893 132.201 1.143L132.046 3.13692ZM139.24 3.96342C139.544 4.00851 139.85 4.05506 140.157 4.10308L140.466 2.12704C140.153 2.07825 139.843 2.03094 139.534 1.9851L139.24 3.96342ZM145.897 5.12826C146.228 5.19425 146.56 5.26176 146.894 5.3308L147.299 3.37211C146.96 3.3022 146.624 3.23383 146.289 3.16698L145.897 5.12826ZM152.977 6.70405C153.281 6.7781 153.586 6.85329 153.892 6.92962L154.376 4.98893C154.066 4.91182 153.758 4.83586 153.451 4.76104L152.977 6.70405ZM159.567 8.42806C159.891 8.51828 160.217 8.60967 160.544 8.70223L161.088 6.77779C160.758 6.68445 160.43 6.59228 160.103 6.50129L159.567 8.42806ZM166.596 10.4967C166.769 10.5501 166.942 10.6039 167.115 10.6579L167.71 8.74844C167.536 8.69401 167.361 8.63988 167.187 8.58605L166.596 10.4967Z" fill="#D1D5DB"/>
</svg>
