<svg width="300" height="238" viewBox="0 0 300 238" fill="none" xmlns="http://www.w3.org/2000/svg">
<rect width="300" height="238" rx="8.89577" fill="white"/>
<path d="M86.8687 41.0315L83.1387 27.9956H86.1494L88.3072 37.0533H88.4154L90.796 27.9956H93.3739L95.7481 37.0724H95.8626L98.0204 27.9956H101.031L97.3012 41.0315H94.6151L92.1326 32.5085H92.0308L89.5548 41.0315H86.8687ZM105.861 41.2224C104.855 41.2224 103.989 41.0188 103.264 40.6114C102.542 40.1998 101.986 39.6184 101.596 38.8673C101.206 38.112 101.01 37.2188 101.01 36.1876C101.01 35.1819 101.206 34.2993 101.596 33.5397C101.986 32.7801 102.536 32.1882 103.245 31.7638C103.958 31.3395 104.794 31.1273 105.753 31.1273C106.398 31.1273 106.998 31.2313 107.554 31.4392C108.114 31.6429 108.602 31.9505 109.018 32.3621C109.438 32.7737 109.765 33.2914 109.998 33.9152C110.231 34.5348 110.348 35.2604 110.348 36.0921V36.8368H102.093V35.1564H107.796C107.796 34.766 107.711 34.4202 107.541 34.1189C107.371 33.8176 107.136 33.5821 106.835 33.4124C106.538 33.2384 106.192 33.1514 105.797 33.1514C105.385 33.1514 105.021 33.2469 104.702 33.4378C104.388 33.6246 104.142 33.877 103.964 34.1953C103.786 34.5093 103.694 34.8594 103.69 35.2456V36.8432C103.69 37.327 103.779 37.7449 103.958 38.0972C104.14 38.4494 104.397 38.7209 104.728 38.9119C105.059 39.1028 105.451 39.1983 105.905 39.1983C106.207 39.1983 106.482 39.1559 106.733 39.071C106.983 38.9862 107.197 38.8588 107.376 38.6891C107.554 38.5194 107.69 38.3114 107.783 38.0653L110.291 38.2308C110.164 38.8334 109.903 39.3596 109.508 39.8094C109.118 40.2549 108.613 40.6029 107.993 40.8533C107.378 41.0994 106.667 41.2224 105.861 41.2224ZM114.829 27.9956V41.0315H112.118V27.9956H114.829ZM121.419 41.2224C120.417 41.2224 119.556 41.0103 118.835 40.5859C118.117 40.1573 117.566 39.5633 117.18 38.8037C116.798 38.0441 116.607 37.17 116.607 36.1812C116.607 35.1798 116.8 34.3014 117.186 33.5461C117.576 32.7865 118.13 32.1945 118.847 31.7702C119.564 31.3416 120.417 31.1273 121.406 31.1273C122.259 31.1273 123.006 31.2822 123.647 31.5919C124.287 31.9017 124.794 32.3367 125.168 32.8968C125.541 33.4569 125.747 34.1147 125.785 34.87H123.227C123.154 34.382 122.963 33.9895 122.654 33.6925C122.348 33.3912 121.947 33.2405 121.451 33.2405C121.031 33.2405 120.663 33.3551 120.349 33.5842C120.04 33.8091 119.798 34.138 119.624 34.5708C119.45 35.0037 119.363 35.5277 119.363 36.143C119.363 36.7668 119.448 37.2973 119.617 37.7343C119.791 38.1714 120.035 38.5045 120.349 38.7337C120.663 38.9628 121.031 39.0774 121.451 39.0774C121.76 39.0774 122.038 39.0137 122.284 38.8864C122.535 38.7591 122.741 38.5745 122.902 38.3327C123.067 38.0865 123.176 37.7916 123.227 37.4479H125.785C125.743 38.1947 125.539 38.8525 125.174 39.4211C124.814 39.9855 124.315 40.4268 123.678 40.7451C123.042 41.0633 122.289 41.2224 121.419 41.2224ZM131.939 41.2224C130.95 41.2224 130.095 41.0124 129.374 40.5923C128.657 40.168 128.103 39.5781 127.712 38.8228C127.322 38.0632 127.127 37.1827 127.127 36.1812C127.127 35.1713 127.322 34.2887 127.712 33.5333C128.103 32.7737 128.657 32.1839 129.374 31.7638C130.095 31.3395 130.95 31.1273 131.939 31.1273C132.928 31.1273 133.78 31.3395 134.498 31.7638C135.219 32.1839 135.775 32.7737 136.165 33.5333C136.556 34.2887 136.751 35.1713 136.751 36.1812C136.751 37.1827 136.556 38.0632 136.165 38.8228C135.775 39.5781 135.219 40.168 134.498 40.5923C133.78 41.0124 132.928 41.2224 131.939 41.2224ZM131.952 39.1219C132.401 39.1219 132.777 38.9946 133.078 38.74C133.379 38.4812 133.607 38.129 133.759 37.6834C133.916 37.2379 133.995 36.7308 133.995 36.1621C133.995 35.5935 133.916 35.0864 133.759 34.6409C133.607 34.1953 133.379 33.8431 133.078 33.5842C132.777 33.3254 132.401 33.196 131.952 33.196C131.498 33.196 131.116 33.3254 130.806 33.5842C130.5 33.8431 130.269 34.1953 130.112 34.6409C129.959 35.0864 129.883 35.5935 129.883 36.1621C129.883 36.7308 129.959 37.2379 130.112 37.6834C130.269 38.129 130.5 38.4812 130.806 38.74C131.116 38.9946 131.498 39.1219 131.952 39.1219ZM138.514 41.0315V31.2546H141.098V32.9796H141.213C141.417 32.4067 141.756 31.9548 142.231 31.6238C142.707 31.2928 143.275 31.1273 143.937 31.1273C144.608 31.1273 145.178 31.2949 145.649 31.6301C146.12 31.9611 146.434 32.4109 146.591 32.9796H146.693C146.893 32.4194 147.253 31.9717 147.775 31.6365C148.302 31.297 148.923 31.1273 149.64 31.1273C150.553 31.1273 151.293 31.418 151.862 31.9993C152.435 32.5764 152.721 33.3954 152.721 34.4563V41.0315H150.016V34.9909C150.016 34.4478 149.872 34.0404 149.583 33.7688C149.295 33.4973 148.934 33.3615 148.501 33.3615C148.009 33.3615 147.625 33.5185 147.349 33.8325C147.073 34.1423 146.935 34.5518 146.935 35.061V41.0315H144.306V34.9337C144.306 34.4542 144.168 34.0722 143.893 33.7879C143.621 33.5036 143.262 33.3615 142.817 33.3615C142.516 33.3615 142.244 33.4378 142.002 33.5906C141.765 33.7391 141.576 33.9492 141.436 34.2208C141.296 34.4881 141.226 34.8021 141.226 35.1628V41.0315H138.514ZM159.319 41.2224C158.313 41.2224 157.447 41.0188 156.722 40.6114C156 40.1998 155.444 39.6184 155.054 38.8673C154.664 38.112 154.468 37.2188 154.468 36.1876C154.468 35.1819 154.664 34.2993 155.054 33.5397C155.444 32.7801 155.994 32.1882 156.703 31.7638C157.415 31.3395 158.251 31.1273 159.21 31.1273C159.855 31.1273 160.456 31.2313 161.012 31.4392C161.572 31.6429 162.06 31.9505 162.476 32.3621C162.896 32.7737 163.223 33.2914 163.456 33.9152C163.689 34.5348 163.806 35.2604 163.806 36.0921V36.8368H155.55V35.1564H161.254C161.254 34.766 161.169 34.4202 160.999 34.1189C160.829 33.8176 160.594 33.5821 160.292 33.4124C159.995 33.2384 159.65 33.1514 159.255 33.1514C158.843 33.1514 158.478 33.2469 158.16 33.4378C157.846 33.6246 157.6 33.877 157.422 34.1953C157.244 34.5093 157.152 34.8594 157.148 35.2456V36.8432C157.148 37.327 157.237 37.7449 157.415 38.0972C157.598 38.4494 157.855 38.7209 158.186 38.9119C158.517 39.1028 158.909 39.1983 159.363 39.1983C159.664 39.1983 159.94 39.1559 160.191 39.071C160.441 38.9862 160.655 38.8588 160.834 38.6891C161.012 38.5194 161.148 38.3114 161.241 38.0653L163.749 38.2308C163.621 38.8334 163.36 39.3596 162.966 39.8094C162.575 40.2549 162.07 40.6029 161.451 40.8533C160.836 41.0994 160.125 41.2224 159.319 41.2224ZM169.775 41.0315V27.9956H172.487V32.8968H172.569C172.688 32.6337 172.86 32.3664 173.085 32.0948C173.314 31.819 173.611 31.5898 173.976 31.4074C174.345 31.2206 174.803 31.1273 175.351 31.1273C176.064 31.1273 176.722 31.314 177.324 31.6874C177.927 32.0566 178.408 32.6146 178.769 33.3615C179.13 34.1041 179.31 35.0355 179.31 36.1558C179.31 37.2463 179.134 38.1672 178.782 38.9183C178.434 39.6651 177.958 40.2316 177.356 40.6178C176.758 40.9997 176.087 41.1906 175.345 41.1906C174.818 41.1906 174.371 41.1036 174.001 40.9297C173.637 40.7557 173.337 40.5371 173.104 40.274C172.871 40.0067 172.692 39.7372 172.569 39.4657H172.448V41.0315H169.775ZM172.429 36.143C172.429 36.7244 172.51 37.2315 172.671 37.6643C172.832 38.0972 173.066 38.4345 173.371 38.6764C173.677 38.914 174.048 39.0328 174.485 39.0328C174.927 39.0328 175.3 38.9119 175.605 38.67C175.911 38.4239 176.142 38.0844 176.299 37.6516C176.461 37.2145 176.541 36.7117 176.541 36.143C176.541 35.5787 176.463 35.0822 176.306 34.6536C176.149 34.225 175.917 33.8898 175.612 33.6479C175.306 33.406 174.931 33.2851 174.485 33.2851C174.044 33.2851 173.67 33.4018 173.365 33.6352C173.064 33.8686 172.832 34.1995 172.671 34.6281C172.51 35.0567 172.429 35.5617 172.429 36.143ZM183.907 41.2161C183.283 41.2161 182.728 41.1079 182.24 40.8915C181.752 40.6708 181.365 40.3462 181.081 39.9176C180.801 39.4848 180.661 38.9458 180.661 38.3008C180.661 37.7577 180.761 37.3015 180.96 36.9323C181.16 36.5631 181.431 36.2661 181.775 36.0412C182.119 35.8163 182.509 35.6466 182.946 35.532C183.387 35.4174 183.85 35.3368 184.334 35.2901C184.902 35.2307 185.361 35.1755 185.709 35.1246C186.057 35.0695 186.309 34.9888 186.466 34.8827C186.623 34.7767 186.702 34.6196 186.702 34.4117V34.3735C186.702 33.9704 186.574 33.6585 186.32 33.4378C186.069 33.2172 185.713 33.1069 185.25 33.1069C184.762 33.1069 184.374 33.2151 184.085 33.4315C183.797 33.6437 183.606 33.911 183.513 34.2335L181.005 34.0298C181.132 33.4357 181.382 32.9223 181.756 32.4894C182.129 32.0524 182.611 31.7171 183.201 31.4837C183.795 31.2461 184.482 31.1273 185.263 31.1273C185.806 31.1273 186.326 31.1909 186.823 31.3182C187.323 31.4455 187.767 31.6429 188.153 31.9102C188.543 32.1775 188.851 32.5213 189.076 32.9414C189.301 33.3572 189.413 33.8558 189.413 34.4372V41.0315H186.842V39.6757H186.765C186.608 39.9812 186.398 40.2507 186.135 40.4841C185.872 40.7132 185.556 40.8936 185.187 41.0251C184.817 41.1524 184.391 41.2161 183.907 41.2161ZM184.684 39.3447C185.083 39.3447 185.435 39.2662 185.74 39.1092C186.046 38.948 186.286 38.7315 186.46 38.46C186.634 38.1884 186.721 37.8807 186.721 37.537V36.4995C186.636 36.5547 186.519 36.6056 186.371 36.6523C186.226 36.6947 186.063 36.735 185.88 36.7732C185.698 36.8071 185.516 36.839 185.333 36.8687C185.151 36.8941 184.985 36.9175 184.837 36.9387C184.518 36.9854 184.24 37.0596 184.003 37.1615C183.765 37.2633 183.581 37.4012 183.449 37.5752C183.317 37.7449 183.252 37.9571 183.252 38.2117C183.252 38.5809 183.385 38.8631 183.653 39.0583C183.924 39.2492 184.268 39.3447 184.684 39.3447ZM195.934 41.2224C194.933 41.2224 194.071 41.0103 193.35 40.5859C192.633 40.1573 192.081 39.5633 191.695 38.8037C191.313 38.0441 191.122 37.17 191.122 36.1812C191.122 35.1798 191.315 34.3014 191.701 33.5461C192.092 32.7865 192.646 32.1945 193.363 31.7702C194.08 31.3416 194.933 31.1273 195.922 31.1273C196.774 31.1273 197.521 31.2822 198.162 31.5919C198.803 31.9017 199.31 32.3367 199.683 32.8968C200.057 33.4569 200.263 34.1147 200.301 34.87H197.742C197.67 34.382 197.479 33.9895 197.169 33.6925C196.864 33.3912 196.463 33.2405 195.966 33.2405C195.546 33.2405 195.179 33.3551 194.865 33.5842C194.555 33.8091 194.313 34.138 194.139 34.5708C193.965 35.0037 193.878 35.5277 193.878 36.143C193.878 36.7668 193.963 37.2973 194.133 37.7343C194.307 38.1714 194.551 38.5045 194.865 38.7337C195.179 38.9628 195.546 39.0774 195.966 39.0774C196.276 39.0774 196.554 39.0137 196.8 38.8864C197.05 38.7591 197.256 38.5745 197.417 38.3327C197.583 38.0865 197.691 37.7916 197.742 37.4479H200.301C200.258 38.1947 200.055 38.8525 199.69 39.4211C199.329 39.9855 198.83 40.4268 198.194 40.7451C197.557 41.0633 196.804 41.2224 195.934 41.2224ZM204.494 38.2181L204.5 34.9655H204.895L208.026 31.2546H211.139L206.932 36.1685H206.289L204.494 38.2181ZM202.037 41.0315V27.9956H204.748V41.0315H202.037ZM208.147 41.0315L205.27 36.7732L207.078 34.8573L211.324 41.0315H208.147ZM215.709 27.9956L215.461 37.1233H213.131L212.877 27.9956H215.709ZM214.296 41.197C213.876 41.197 213.515 41.0485 213.214 40.7514C212.913 40.4501 212.764 40.0894 212.769 39.6693C212.764 39.2535 212.913 38.897 213.214 38.6C213.515 38.303 213.876 38.1544 214.296 38.1544C214.699 38.1544 215.054 38.303 215.359 38.6C215.665 38.897 215.82 39.2535 215.824 39.6693C215.82 39.9494 215.745 40.2061 215.601 40.4395C215.461 40.6687 215.276 40.8533 215.047 40.9933C214.818 41.1291 214.568 41.197 214.296 41.197Z" fill="#1F2937"/>
<path d="M35.3354 73.9685V66.3642H40.1029V67.3519H36.4828V69.6688H39.8542V70.6528H36.4828V72.9808H40.1475V73.9685H35.3354ZM41.5464 73.9685V68.2653H42.612V69.1936H42.6826C42.8014 68.8792 42.9957 68.6341 43.2655 68.4584C43.5353 68.2802 43.8583 68.1911 44.2346 68.1911C44.6158 68.1911 44.9351 68.2802 45.1926 68.4584C45.4525 68.6366 45.6443 68.8817 45.7681 69.1936H45.8275C45.9636 68.8891 46.1802 68.6465 46.4773 68.4658C46.7743 68.2826 47.1283 68.1911 47.5392 68.1911C48.0565 68.1911 48.4786 68.3532 48.8053 68.6775C49.1345 69.0017 49.2992 69.4906 49.2992 70.1441V73.9685H48.189V70.2481C48.189 69.8619 48.0838 69.5822 47.8734 69.4089C47.663 69.2356 47.4117 69.149 47.1196 69.149C46.7582 69.149 46.4773 69.2604 46.2768 69.4832C46.0763 69.7035 45.976 69.9869 45.976 70.3335V73.9685H44.8695V70.1775C44.8695 69.8681 44.773 69.6193 44.5799 69.4312C44.3868 69.2431 44.1356 69.149 43.8262 69.149C43.6158 69.149 43.4214 69.2047 43.2432 69.3161C43.0675 69.425 42.9251 69.5772 42.8162 69.7728C42.7098 69.9683 42.6566 70.1948 42.6566 70.4523V73.9685H41.5464ZM52.4469 74.0947C52.0855 74.0947 51.7587 74.0279 51.4666 73.8942C51.1745 73.7581 50.9431 73.5613 50.7723 73.3039C50.604 73.0464 50.5198 72.7308 50.5198 72.3571C50.5198 72.0353 50.5817 71.7704 50.7055 71.5625C50.8292 71.3545 50.9963 71.1899 51.2067 71.0686C51.4171 70.9473 51.6523 70.8558 51.9122 70.7939C52.1721 70.732 52.437 70.685 52.7068 70.6528C53.0484 70.6132 53.3256 70.581 53.5385 70.5562C53.7514 70.529 53.9061 70.4857 54.0026 70.4263C54.0992 70.3669 54.1474 70.2703 54.1474 70.1367V70.1107C54.1474 69.7864 54.0558 69.5352 53.8727 69.3569C53.692 69.1787 53.4221 69.0896 53.0632 69.0896C52.6894 69.0896 52.3949 69.1725 52.1795 69.3384C51.9666 69.5017 51.8194 69.6837 51.7377 69.8842L50.6943 69.6466C50.8181 69.3 50.9988 69.0203 51.2364 68.8074C51.4765 68.5921 51.7525 68.4361 52.0644 68.3396C52.3763 68.2406 52.7043 68.1911 53.0484 68.1911C53.2761 68.1911 53.5175 68.2183 53.7724 68.2727C54.0298 68.3247 54.27 68.4213 54.4927 68.5624C54.718 68.7034 54.9024 68.9052 55.046 69.1676C55.1895 69.4275 55.2613 69.7654 55.2613 70.1812V73.9685H54.1771V73.1888H54.1326C54.0608 73.3323 53.9531 73.4734 53.8095 73.6121C53.666 73.7507 53.4816 73.8658 53.2563 73.9574C53.031 74.049 52.7612 74.0947 52.4469 74.0947ZM52.6882 73.2036C52.9952 73.2036 53.2575 73.143 53.4754 73.0217C53.6957 72.9004 53.8628 72.742 53.9766 72.5464C54.093 72.3484 54.1511 72.1368 54.1511 71.9115V71.1763C54.1115 71.2159 54.0348 71.2531 53.9209 71.2877C53.8095 71.3199 53.6821 71.3484 53.5385 71.3731C53.3949 71.3954 53.2551 71.4164 53.1189 71.4362C52.9828 71.4536 52.8689 71.4684 52.7773 71.4808C52.562 71.508 52.3652 71.5538 52.187 71.6182C52.0112 71.6825 51.8701 71.7754 51.7637 71.8966C51.6597 72.0155 51.6077 72.1739 51.6077 72.3719C51.6077 72.6467 51.7092 72.8546 51.9122 72.9957C52.1152 73.1343 52.3738 73.2036 52.6882 73.2036ZM56.74 73.9685V68.2653H57.8502V73.9685H56.74ZM57.3007 67.3853C57.1076 67.3853 56.9418 67.321 56.8032 67.1923C56.667 67.0611 56.5989 66.9051 56.5989 66.7244C56.5989 66.5412 56.667 66.3853 56.8032 66.2566C56.9418 66.1254 57.1076 66.0598 57.3007 66.0598C57.4938 66.0598 57.6584 66.1254 57.7945 66.2566C57.9332 66.3853 58.0025 66.5412 58.0025 66.7244C58.0025 66.9051 57.9332 67.0611 57.7945 67.1923C57.6584 67.321 57.4938 67.3853 57.3007 67.3853ZM60.454 66.3642V73.9685H59.3438V66.3642H60.454Z" fill="#1F2937"/>
<rect x="34.8734" y="82.3292" width="230.253" height="29.6964" rx="2.61396" fill="white"/>
<path d="M44.2629 100.677V94.9743H45.1095V95.8357H45.1689C45.2729 95.5535 45.461 95.3246 45.7333 95.1488C46.0056 94.9731 46.3125 94.8852 46.6541 94.8852C46.7185 94.8852 46.7989 94.8864 46.8955 94.8889C46.992 94.8914 47.065 94.8951 47.1145 94.9V95.7912C47.0848 95.7837 47.0168 95.7726 46.9103 95.7577C46.8064 95.7404 46.6962 95.7318 46.5799 95.7318C46.3026 95.7318 46.0551 95.7899 45.8373 95.9063C45.6219 96.0201 45.4511 96.1786 45.3249 96.3815C45.2011 96.582 45.1392 96.811 45.1392 97.0684V100.677H44.2629ZM50.3709 100.796C49.8213 100.796 49.3473 100.675 48.9488 100.432C48.5527 100.187 48.247 99.8458 48.0317 99.4076C47.8188 98.967 47.7123 98.4546 47.7123 97.8705C47.7123 97.2863 47.8188 96.7714 48.0317 96.3258C48.247 95.8778 48.5465 95.5288 48.9302 95.2788C49.3164 95.0263 49.7669 94.9 50.2817 94.9C50.5788 94.9 50.8721 94.9495 51.1617 95.0486C51.4513 95.1476 51.715 95.3085 51.9526 95.5312C52.1902 95.7516 52.3796 96.0436 52.5207 96.4075C52.6618 96.7714 52.7323 97.2194 52.7323 97.7516V98.1229H48.3361V97.3655H51.8412C51.8412 97.0437 51.7769 96.7565 51.6481 96.5041C51.5219 96.2516 51.3412 96.0523 51.106 95.9063C50.8734 95.7602 50.5986 95.6872 50.2817 95.6872C49.9327 95.6872 49.6307 95.7738 49.3758 95.9471C49.1233 96.1179 48.929 96.3407 48.7928 96.6155C48.6567 96.8902 48.5886 97.1848 48.5886 97.4991V98.0041C48.5886 98.4348 48.6629 98.7999 48.8114 99.0995C48.9624 99.3965 49.1716 99.623 49.4389 99.7789C49.7062 99.9324 50.0169 100.009 50.3709 100.009C50.6011 100.009 50.809 99.977 50.9946 99.9126C51.1828 99.8458 51.3449 99.7468 51.4811 99.6156C51.6172 99.4819 51.7224 99.3161 51.7967 99.118L52.6432 99.3557C52.5541 99.6428 52.4044 99.8953 52.194 100.113C51.9835 100.328 51.7236 100.497 51.4142 100.618C51.1048 100.737 50.757 100.796 50.3709 100.796ZM56.3822 100.796C55.8476 100.796 55.3871 100.67 55.001 100.418C54.6148 100.165 54.3178 99.8173 54.1099 99.3742C53.9019 98.9311 53.798 98.4249 53.798 97.8556C53.798 97.2764 53.9044 96.7652 54.1173 96.3221C54.3326 95.8766 54.6322 95.5288 55.0158 95.2788C55.402 95.0263 55.8525 94.9 56.3674 94.9C56.7684 94.9 57.1298 94.9743 57.4516 95.1228C57.7734 95.2713 58.037 95.4793 58.2425 95.7466C58.4479 96.0139 58.5754 96.3258 58.6249 96.6823H57.7486C57.6818 96.4224 57.5333 96.1922 57.3031 95.9917C57.0753 95.7887 56.7684 95.6872 56.3822 95.6872C56.0406 95.6872 55.7411 95.7763 55.4837 95.9545C55.2287 96.1303 55.0295 96.3791 54.8859 96.7008C54.7448 97.0202 54.6742 97.3952 54.6742 97.8259C54.6742 98.2665 54.7436 98.6502 54.8822 98.9769C55.0233 99.3037 55.2213 99.5574 55.4763 99.7381C55.7337 99.9188 56.0357 100.009 56.3822 100.009C56.61 100.009 56.8167 99.9695 57.0023 99.8903C57.188 99.8111 57.3451 99.6973 57.4739 99.5487C57.6026 99.4002 57.6942 99.222 57.7486 99.0141H58.6249C58.5754 99.3507 58.4529 99.6539 58.2573 99.9237C58.0642 100.191 57.808 100.404 57.4887 100.562C57.1719 100.718 56.803 100.796 56.3822 100.796ZM59.9059 100.677V94.9743H60.7525V95.8357H60.8119C60.9158 95.5535 61.104 95.3246 61.3762 95.1488C61.6485 94.9731 61.9555 94.8852 62.2971 94.8852C62.3614 94.8852 62.4419 94.8864 62.5384 94.8889C62.635 94.8914 62.708 94.8951 62.7575 94.9V95.7912C62.7278 95.7837 62.6597 95.7726 62.5533 95.7577C62.4493 95.7404 62.3391 95.7318 62.2228 95.7318C61.9456 95.7318 61.698 95.7899 61.4802 95.9063C61.2648 96.0201 61.0941 96.1786 60.9678 96.3815C60.844 96.582 60.7822 96.811 60.7822 97.0684V100.677H59.9059ZM67.3904 98.3457V94.9743H68.2667V100.677H67.3904V99.7121H67.331C67.1973 100.002 66.9894 100.248 66.7072 100.451C66.425 100.651 66.0686 100.752 65.6379 100.752C65.2814 100.752 64.9646 100.674 64.6873 100.518C64.4101 100.359 64.1923 100.122 64.0338 99.8049C63.8754 99.4856 63.7962 99.0834 63.7962 98.5982V94.9743H64.6725V98.5388C64.6725 98.9547 64.7888 99.2863 65.0215 99.5339C65.2567 99.7814 65.5562 99.9052 65.92 99.9052C66.1379 99.9052 66.3594 99.8495 66.5847 99.7381C66.8124 99.6267 67.003 99.4559 67.1565 99.2257C67.3124 98.9955 67.3904 98.7022 67.3904 98.3457ZM69.8716 100.677V94.9743H70.7479V100.677H69.8716ZM70.3172 94.0238C70.1464 94.0238 69.9991 93.9656 69.8753 93.8493C69.754 93.7329 69.6934 93.5931 69.6934 93.4297C69.6934 93.2663 69.754 93.1265 69.8753 93.0101C69.9991 92.8938 70.1464 92.8356 70.3172 92.8356C70.488 92.8356 70.634 92.8938 70.7553 93.0101C70.8791 93.1265 70.941 93.2663 70.941 93.4297C70.941 93.5931 70.8791 93.7329 70.7553 93.8493C70.634 93.9656 70.488 94.0238 70.3172 94.0238ZM74.8331 94.9743V95.7169H71.8776V94.9743H74.8331ZM72.739 93.6079H73.6153V99.0438C73.6153 99.2913 73.6512 99.4769 73.7229 99.6007C73.7972 99.722 73.8913 99.8037 74.0051 99.8458C74.1215 99.8854 74.244 99.9052 74.3727 99.9052C74.4693 99.9052 74.5485 99.9002 74.6104 99.8903C74.6722 99.878 74.7217 99.8681 74.7589 99.8606L74.9371 100.648C74.8777 100.67 74.7948 100.692 74.6883 100.715C74.5819 100.739 74.447 100.752 74.2836 100.752C74.0361 100.752 73.7935 100.699 73.5559 100.592C73.3207 100.486 73.1252 100.324 72.9692 100.106C72.8157 99.8879 72.739 99.6131 72.739 99.2814V93.6079ZM78.4812 100.796C77.9317 100.796 77.4576 100.675 77.0591 100.432C76.663 100.187 76.3573 99.8458 76.142 99.4076C75.9291 98.967 75.8227 98.4546 75.8227 97.8705C75.8227 97.2863 75.9291 96.7714 76.142 96.3258C76.3573 95.8778 76.6568 95.5288 77.0405 95.2788C77.4267 95.0263 77.8772 94.9 78.3921 94.9C78.6891 94.9 78.9824 94.9495 79.272 95.0486C79.5617 95.1476 79.8253 95.3085 80.0629 95.5312C80.3006 95.7516 80.4899 96.0436 80.631 96.4075C80.7721 96.7714 80.8427 97.2194 80.8427 97.7516V98.1229H76.4464V97.3655H79.9515C79.9515 97.0437 79.8872 96.7565 79.7585 96.5041C79.6322 96.2516 79.4515 96.0523 79.2164 95.9063C78.9837 95.7602 78.7089 95.6872 78.3921 95.6872C78.043 95.6872 77.741 95.7738 77.4861 95.9471C77.2336 96.1179 77.0393 96.3407 76.9031 96.6155C76.767 96.8902 76.6989 97.1848 76.6989 97.4991V98.0041C76.6989 98.4348 76.7732 98.7999 76.9217 99.0995C77.0727 99.3965 77.2819 99.623 77.5492 99.7789C77.8165 99.9324 78.1272 100.009 78.4812 100.009C78.7114 100.009 78.9193 99.977 79.105 99.9126C79.2931 99.8458 79.4552 99.7468 79.5914 99.6156C79.7275 99.4819 79.8327 99.3161 79.907 99.118L80.7535 99.3557C80.6644 99.6428 80.5147 99.8953 80.3043 100.113C80.0939 100.328 79.834 100.497 79.5245 100.618C79.2151 100.737 78.8673 100.796 78.4812 100.796ZM82.1756 100.677V94.9743H83.0222V95.8357H83.0816C83.1856 95.5535 83.3737 95.3246 83.646 95.1488C83.9183 94.9731 84.2252 94.8852 84.5668 94.8852C84.6312 94.8852 84.7116 94.8864 84.8082 94.8889C84.9047 94.8914 84.9777 94.8951 85.0272 94.9V95.7912C84.9975 95.7837 84.9294 95.7726 84.823 95.7577C84.719 95.7404 84.6089 95.7318 84.4925 95.7318C84.2153 95.7318 83.9678 95.7899 83.7499 95.9063C83.5346 96.0201 83.3638 96.1786 83.2375 96.3815C83.1138 96.582 83.0519 96.811 83.0519 97.0684V100.677H82.1756ZM90.4473 102.683C89.6898 102.683 89.0203 102.579 88.4386 102.371C87.8569 102.165 87.368 101.862 86.9719 101.461C86.5759 101.06 86.2763 100.569 86.0734 99.9869C85.8704 99.4052 85.7689 98.7393 85.7689 97.9893C85.7689 97.264 85.8716 96.6155 86.0771 96.0436C86.285 95.4718 86.5858 94.9867 86.9793 94.5881C87.3754 94.1871 87.8556 93.8814 88.42 93.671C88.9868 93.4606 89.628 93.3554 90.3433 93.3554C91.0389 93.3554 91.6478 93.4693 92.1701 93.697C92.6949 93.9223 93.1331 94.228 93.4845 94.6141C93.8385 94.9978 94.1034 95.4298 94.2791 95.91C94.4574 96.3902 94.5465 96.8853 94.5465 97.3952C94.5465 97.7541 94.5291 98.118 94.4945 98.4868C94.4598 98.8556 94.3868 99.1948 94.2754 99.5042C94.164 99.8111 93.992 100.059 93.7593 100.247C93.5291 100.435 93.2172 100.529 92.8236 100.529C92.6504 100.529 92.4598 100.502 92.2518 100.447C92.0439 100.393 91.8595 100.302 91.6986 100.176C91.5377 100.05 91.4424 99.8804 91.4127 99.6675H91.3681C91.3087 99.8111 91.2171 99.9473 91.0934 100.076C90.9721 100.205 90.8124 100.307 90.6144 100.384C90.4188 100.461 90.18 100.494 89.8978 100.484C89.576 100.472 89.2926 100.4 89.0475 100.269C88.8024 100.135 88.597 99.9547 88.4311 99.727C88.2678 99.4968 88.144 99.2307 88.0598 98.9287C87.9781 98.6242 87.9373 98.2962 87.9373 97.9447C87.9373 97.6105 87.9868 97.3048 88.0858 97.0276C88.1848 96.7504 88.3222 96.5078 88.498 96.2998C88.6762 96.0919 88.8841 95.9261 89.1218 95.8023C89.3619 95.6761 89.6205 95.5981 89.8978 95.5684C90.1453 95.5436 90.3706 95.5548 90.5735 95.6018C90.7765 95.6464 90.9436 95.7144 91.0748 95.806C91.206 95.8951 91.2889 95.9941 91.3236 96.1031H91.3681V95.6872H92.1553V99.0438C92.1553 99.2517 92.2135 99.4349 92.3298 99.5933C92.4461 99.7517 92.6157 99.8309 92.8385 99.8309C93.091 99.8309 93.284 99.7443 93.4177 99.571C93.5539 99.3977 93.6467 99.1304 93.6962 98.769C93.7482 98.4076 93.7742 97.9447 93.7742 97.3803C93.7742 97.0486 93.7284 96.7219 93.6368 96.4001C93.5477 96.0758 93.4115 95.7726 93.2284 95.4904C93.0477 95.2082 92.8187 94.9594 92.5414 94.7441C92.2642 94.5287 91.9387 94.3604 91.5649 94.2391C91.1936 94.1154 90.7716 94.0535 90.2988 94.0535C89.7171 94.0535 89.196 94.1438 88.7356 94.3245C88.2777 94.5027 87.8878 94.7639 87.566 95.108C87.2467 95.4496 87.0029 95.8654 86.8345 96.3555C86.6687 96.8432 86.5858 97.3977 86.5858 98.019C86.5858 98.6502 86.6687 99.2108 86.8345 99.701C87.0029 100.191 87.2504 100.604 87.5771 100.941C87.9064 101.278 88.3136 101.533 88.7987 101.706C89.2839 101.882 89.8433 101.97 90.477 101.97C90.7493 101.97 91.0179 101.944 91.2827 101.892C91.5476 101.84 91.7815 101.783 91.9845 101.721C92.1875 101.659 92.3335 101.613 92.4226 101.583L92.6306 102.267C92.4771 102.331 92.2766 102.395 92.029 102.46C91.784 102.524 91.5216 102.577 91.2419 102.619C90.9646 102.661 90.6998 102.683 90.4473 102.683ZM90.0166 99.727C90.3483 99.727 90.6169 99.6601 90.8223 99.5265C91.0278 99.3928 91.1775 99.191 91.2716 98.9212C91.3657 98.6514 91.4127 98.3111 91.4127 97.9002C91.4127 97.4843 91.3607 97.16 91.2567 96.9273C91.1528 96.6947 90.9993 96.5313 90.7963 96.4372C90.5933 96.3432 90.3433 96.2961 90.0463 96.2961C89.7641 96.2961 89.5228 96.3704 89.3223 96.5189C89.1242 96.665 88.972 96.8605 88.8656 97.1056C88.7616 97.3482 88.7096 97.613 88.7096 97.9002C88.7096 98.217 88.7517 98.5153 88.8359 98.795C88.92 99.0722 89.0574 99.2975 89.248 99.4708C89.4386 99.6416 89.6948 99.727 90.0166 99.727ZM98.175 100.796C97.6403 100.796 97.1799 100.67 96.7938 100.418C96.4076 100.165 96.1106 99.8173 95.9026 99.3742C95.6947 98.9311 95.5908 98.4249 95.5908 97.8556C95.5908 97.2764 95.6972 96.7652 95.9101 96.3221C96.1254 95.8766 96.4249 95.5288 96.8086 95.2788C97.1948 95.0263 97.6453 94.9 98.1602 94.9C98.5612 94.9 98.9226 94.9743 99.2444 95.1228C99.5662 95.2713 99.8298 95.4793 100.035 95.7466C100.241 96.0139 100.368 96.3258 100.418 96.6823H99.5414C99.4746 96.4224 99.326 96.1922 99.0958 95.9917C98.8681 95.7887 98.5612 95.6872 98.175 95.6872C97.8334 95.6872 97.5339 95.7763 97.2765 95.9545C97.0215 96.1303 96.8222 96.3791 96.6787 96.7008C96.5376 97.0202 96.467 97.3952 96.467 97.8259C96.467 98.2665 96.5363 98.6502 96.675 98.9769C96.816 99.3037 97.0141 99.5574 97.269 99.7381C97.5265 99.9188 97.8285 100.009 98.175 100.009C98.4027 100.009 98.6094 99.9695 98.7951 99.8903C98.9807 99.8111 99.1379 99.6973 99.2666 99.5487C99.3954 99.4002 99.4869 99.222 99.5414 99.0141H100.418C100.368 99.3507 100.246 99.6539 100.05 99.9237C99.857 100.191 99.6008 100.404 99.2815 100.562C98.9646 100.718 98.5958 100.796 98.175 100.796ZM104.016 100.796C103.501 100.796 103.049 100.674 102.66 100.429C102.274 100.184 101.972 99.8408 101.754 99.4002C101.539 98.9596 101.431 98.4447 101.431 97.8556C101.431 97.2615 101.539 96.7429 101.754 96.2998C101.972 95.8568 102.274 95.5127 102.66 95.2676C103.049 95.0226 103.501 94.9 104.016 94.9C104.53 94.9 104.981 95.0226 105.367 95.2676C105.756 95.5127 106.058 95.8568 106.273 96.2998C106.491 96.7429 106.6 97.2615 106.6 97.8556C106.6 98.4447 106.491 98.9596 106.273 99.4002C106.058 99.8408 105.756 100.184 105.367 100.429C104.981 100.674 104.53 100.796 104.016 100.796ZM104.016 100.009C104.407 100.009 104.728 99.9089 104.981 99.7084C105.233 99.5079 105.42 99.2443 105.542 98.9175C105.663 98.5908 105.724 98.2368 105.724 97.8556C105.724 97.4744 105.663 97.1192 105.542 96.79C105.42 96.4607 105.233 96.1946 104.981 95.9917C104.728 95.7887 104.407 95.6872 104.016 95.6872C103.624 95.6872 103.303 95.7887 103.05 95.9917C102.798 96.1946 102.611 96.4607 102.49 96.79C102.368 97.1192 102.308 97.4744 102.308 97.8556C102.308 98.2368 102.368 98.5908 102.49 98.9175C102.611 99.2443 102.798 99.5079 103.05 99.7084C103.303 99.9089 103.624 100.009 104.016 100.009ZM107.937 100.677V94.9743H108.784V95.8357H108.843C108.947 95.5535 109.136 95.3246 109.408 95.1488C109.68 94.9731 109.987 94.8852 110.329 94.8852C110.393 94.8852 110.473 94.8864 110.57 94.8889C110.667 94.8914 110.74 94.8951 110.789 94.9V95.7912C110.759 95.7837 110.691 95.7726 110.585 95.7577C110.481 95.7404 110.371 95.7318 110.254 95.7318C109.977 95.7318 109.73 95.7899 109.512 95.9063C109.296 96.0201 109.126 96.1786 108.999 96.3815C108.876 96.582 108.814 96.811 108.814 97.0684V100.677H107.937ZM114.045 100.796C113.496 100.796 113.022 100.675 112.623 100.432C112.227 100.187 111.922 99.8458 111.706 99.4076C111.493 98.967 111.387 98.4546 111.387 97.8705C111.387 97.2863 111.493 96.7714 111.706 96.3258C111.922 95.8778 112.221 95.5288 112.605 95.2788C112.991 95.0263 113.441 94.9 113.956 94.9C114.253 94.9 114.547 94.9495 114.836 95.0486C115.126 95.1476 115.389 95.3085 115.627 95.5312C115.865 95.7516 116.054 96.0436 116.195 96.4075C116.336 96.7714 116.407 97.2194 116.407 97.7516V98.1229H112.011V97.3655H115.516C115.516 97.0437 115.451 96.7565 115.323 96.5041C115.196 96.2516 115.016 96.0523 114.781 95.9063C114.548 95.7602 114.273 95.6872 113.956 95.6872C113.607 95.6872 113.305 95.7738 113.05 95.9471C112.798 96.1179 112.603 96.3407 112.467 96.6155C112.331 96.8902 112.263 97.1848 112.263 97.4991V98.0041C112.263 98.4348 112.337 98.7999 112.486 99.0995C112.637 99.3965 112.846 99.623 113.113 99.7789C113.381 99.9324 113.691 100.009 114.045 100.009C114.276 100.009 114.484 99.977 114.669 99.9126C114.857 99.8458 115.019 99.7468 115.156 99.6156C115.292 99.4819 115.397 99.3161 115.471 99.118L116.318 99.3557C116.229 99.6428 116.079 99.8953 115.868 100.113C115.658 100.328 115.398 100.497 115.089 100.618C114.779 100.737 114.432 100.796 114.045 100.796ZM120.057 100.796C119.522 100.796 119.062 100.67 118.676 100.418C118.289 100.165 117.992 99.8173 117.784 99.3742C117.576 98.9311 117.472 98.4249 117.472 97.8556C117.472 97.2764 117.579 96.7652 117.792 96.3221C118.007 95.8766 118.307 95.5288 118.69 95.2788C119.077 95.0263 119.527 94.9 120.042 94.9C120.443 94.9 120.804 94.9743 121.126 95.1228C121.448 95.2713 121.712 95.4793 121.917 95.7466C122.122 96.0139 122.25 96.3258 122.299 96.6823H121.423C121.356 96.4224 121.208 96.1922 120.978 95.9917C120.75 95.7887 120.443 95.6872 120.057 95.6872C119.715 95.6872 119.416 95.7763 119.158 95.9545C118.903 96.1303 118.704 96.3791 118.56 96.7008C118.419 97.0202 118.349 97.3952 118.349 97.8259C118.349 98.2665 118.418 98.6502 118.557 98.9769C118.698 99.3037 118.896 99.5574 119.151 99.7381C119.408 99.9188 119.71 100.009 120.057 100.009C120.284 100.009 120.491 99.9695 120.677 99.8903C120.862 99.8111 121.02 99.6973 121.148 99.5487C121.277 99.4002 121.369 99.222 121.423 99.0141H122.299C122.25 99.3507 122.127 99.6539 121.932 99.9237C121.739 100.191 121.483 100.404 121.163 100.562C120.846 100.718 120.478 100.796 120.057 100.796ZM123.58 100.677V94.9743H124.427V95.8357H124.486C124.59 95.5535 124.778 95.3246 125.051 95.1488C125.323 94.9731 125.63 94.8852 125.972 94.8852C126.036 94.8852 126.116 94.8864 126.213 94.8889C126.309 94.8914 126.382 94.8951 126.432 94.9V95.7912C126.402 95.7837 126.334 95.7726 126.228 95.7577C126.124 95.7404 126.014 95.7318 125.897 95.7318C125.62 95.7318 125.373 95.7899 125.155 95.9063C124.939 96.0201 124.769 96.1786 124.642 96.3815C124.519 96.582 124.457 96.811 124.457 97.0684V100.677H123.58ZM131.065 98.3457V94.9743H131.941V100.677H131.065V99.7121H131.006C130.872 100.002 130.664 100.248 130.382 100.451C130.1 100.651 129.743 100.752 129.312 100.752C128.956 100.752 128.639 100.674 128.362 100.518C128.085 100.359 127.867 100.122 127.708 99.8049C127.55 99.4856 127.471 99.0834 127.471 98.5982V94.9743H128.347V98.5388C128.347 98.9547 128.463 99.2863 128.696 99.5339C128.931 99.7814 129.231 99.9052 129.595 99.9052C129.812 99.9052 130.034 99.8495 130.259 99.7381C130.487 99.6267 130.678 99.4559 130.831 99.2257C130.987 98.9955 131.065 98.7022 131.065 98.3457ZM133.546 100.677V94.9743H134.422V100.677H133.546ZM133.992 94.0238C133.821 94.0238 133.674 93.9656 133.55 93.8493C133.429 93.7329 133.368 93.5931 133.368 93.4297C133.368 93.2663 133.429 93.1265 133.55 93.0101C133.674 92.8938 133.821 92.8356 133.992 92.8356C134.162 92.8356 134.309 92.8938 134.43 93.0101C134.554 93.1265 134.615 93.2663 134.615 93.4297C134.615 93.5931 134.554 93.7329 134.43 93.8493C134.309 93.9656 134.162 94.0238 133.992 94.0238ZM138.508 94.9743V95.7169H135.552V94.9743H138.508ZM136.414 93.6079H137.29V99.0438C137.29 99.2913 137.326 99.4769 137.397 99.6007C137.472 99.722 137.566 99.8037 137.68 99.8458C137.796 99.8854 137.919 99.9052 138.047 99.9052C138.144 99.9052 138.223 99.9002 138.285 99.8903C138.347 99.878 138.396 99.8681 138.433 99.8606L138.612 100.648C138.552 100.67 138.469 100.692 138.363 100.715C138.256 100.739 138.121 100.752 137.958 100.752C137.711 100.752 137.468 100.699 137.23 100.592C136.995 100.486 136.8 100.324 136.644 100.106C136.49 99.8879 136.414 99.6131 136.414 99.2814V93.6079ZM142.156 100.796C141.606 100.796 141.132 100.675 140.734 100.432C140.338 100.187 140.032 99.8458 139.816 99.4076C139.604 98.967 139.497 98.4546 139.497 97.8705C139.497 97.2863 139.604 96.7714 139.816 96.3258C140.032 95.8778 140.331 95.5288 140.715 95.2788C141.101 95.0263 141.552 94.9 142.067 94.9C142.364 94.9 142.657 94.9495 142.947 95.0486C143.236 95.1476 143.5 95.3085 143.737 95.5312C143.975 95.7516 144.164 96.0436 144.306 96.4075C144.447 96.7714 144.517 97.2194 144.517 97.7516V98.1229H140.121V97.3655H143.626C143.626 97.0437 143.562 96.7565 143.433 96.5041C143.307 96.2516 143.126 96.0523 142.891 95.9063C142.658 95.7602 142.383 95.6872 142.067 95.6872C141.718 95.6872 141.416 95.7738 141.161 95.9471C140.908 96.1179 140.714 96.3407 140.578 96.6155C140.442 96.8902 140.373 97.1848 140.373 97.4991V98.0041C140.373 98.4348 140.448 98.7999 140.596 99.0995C140.747 99.3965 140.956 99.623 141.224 99.7789C141.491 99.9324 141.802 100.009 142.156 100.009C142.386 100.009 142.594 99.977 142.779 99.9126C142.968 99.8458 143.13 99.7468 143.266 99.6156C143.402 99.4819 143.507 99.3161 143.581 99.118L144.428 99.3557C144.339 99.6428 144.189 99.8953 143.979 100.113C143.768 100.328 143.508 100.497 143.199 100.618C142.89 100.737 142.542 100.796 142.156 100.796ZM145.85 100.677V94.9743H146.697V95.8357H146.756C146.86 95.5535 147.048 95.3246 147.32 95.1488C147.593 94.9731 147.9 94.8852 148.241 94.8852C148.306 94.8852 148.386 94.8864 148.483 94.8889C148.579 94.8914 148.652 94.8951 148.702 94.9V95.7912C148.672 95.7837 148.604 95.7726 148.498 95.7577C148.394 95.7404 148.283 95.7318 148.167 95.7318C147.89 95.7318 147.642 95.7899 147.424 95.9063C147.209 96.0201 147.038 96.1786 146.912 96.3815C146.788 96.582 146.726 96.811 146.726 97.0684V100.677H145.85ZM149.726 100.737C149.542 100.737 149.385 100.671 149.254 100.54C149.123 100.409 149.057 100.252 149.057 100.069C149.057 99.8854 149.123 99.7282 149.254 99.597C149.385 99.4658 149.542 99.4002 149.726 99.4002C149.909 99.4002 150.066 99.4658 150.197 99.597C150.328 99.7282 150.394 99.8854 150.394 100.069C150.394 100.19 150.363 100.301 150.301 100.403C150.242 100.504 150.161 100.586 150.06 100.648C149.961 100.707 149.849 100.737 149.726 100.737ZM154.283 100.796C153.768 100.796 153.317 100.674 152.928 100.429C152.542 100.184 152.24 99.8408 152.022 99.4002C151.807 98.9596 151.699 98.4447 151.699 97.8556C151.699 97.2615 151.807 96.7429 152.022 96.2998C152.24 95.8568 152.542 95.5127 152.928 95.2676C153.317 95.0226 153.768 94.9 154.283 94.9C154.798 94.9 155.249 95.0226 155.635 95.2676C156.023 95.5127 156.325 95.8568 156.541 96.2998C156.759 96.7429 156.868 97.2615 156.868 97.8556C156.868 98.4447 156.759 98.9596 156.541 99.4002C156.325 99.8408 156.023 100.184 155.635 100.429C155.249 100.674 154.798 100.796 154.283 100.796ZM154.283 100.009C154.674 100.009 154.996 99.9089 155.249 99.7084C155.501 99.5079 155.688 99.2443 155.809 98.9175C155.931 98.5908 155.991 98.2368 155.991 97.8556C155.991 97.4744 155.931 97.1192 155.809 96.79C155.688 96.4607 155.501 96.1946 155.249 95.9917C154.996 95.7887 154.674 95.6872 154.283 95.6872C153.892 95.6872 153.57 95.7887 153.318 95.9917C153.065 96.1946 152.879 96.4607 152.757 96.79C152.636 97.1192 152.575 97.4744 152.575 97.8556C152.575 98.2368 152.636 98.5908 152.757 98.9175C152.879 99.2443 153.065 99.5079 153.318 99.7084C153.57 99.9089 153.892 100.009 154.283 100.009ZM158.205 100.677V94.9743H159.052V95.8357H159.111C159.215 95.5535 159.403 95.3246 159.676 95.1488C159.948 94.9731 160.255 94.8852 160.596 94.8852C160.661 94.8852 160.741 94.8864 160.838 94.8889C160.934 94.8914 161.007 94.8951 161.057 94.9V95.7912C161.027 95.7837 160.959 95.7726 160.853 95.7577C160.749 95.7404 160.638 95.7318 160.522 95.7318C160.245 95.7318 159.997 95.7899 159.78 95.9063C159.564 96.0201 159.393 96.1786 159.267 96.3815C159.143 96.582 159.081 96.811 159.081 97.0684V100.677H158.205ZM164.224 102.935C163.801 102.935 163.437 102.881 163.132 102.772C162.828 102.665 162.574 102.524 162.371 102.348C162.171 102.175 162.011 101.989 161.892 101.791L162.59 101.301C162.669 101.405 162.77 101.524 162.891 101.658C163.012 101.794 163.178 101.911 163.389 102.01C163.601 102.112 163.88 102.163 164.224 102.163C164.684 102.163 165.064 102.051 165.364 101.829C165.663 101.606 165.813 101.257 165.813 100.781V99.623H165.739C165.675 99.727 165.583 99.8557 165.464 100.009C165.348 100.16 165.179 100.295 164.959 100.414C164.741 100.53 164.447 100.588 164.075 100.588C163.615 100.588 163.202 100.479 162.835 100.262C162.471 100.044 162.183 99.727 161.97 99.3111C161.76 98.8952 161.655 98.3903 161.655 97.7962C161.655 97.212 161.757 96.7033 161.963 96.2701C162.168 95.8345 162.454 95.4978 162.82 95.2602C163.187 95.0201 163.61 94.9 164.09 94.9C164.462 94.9 164.756 94.9619 164.974 95.0857C165.194 95.207 165.363 95.3456 165.479 95.5015C165.598 95.655 165.689 95.7813 165.754 95.8803H165.843V94.9743H166.689V100.841C166.689 101.331 166.578 101.73 166.355 102.036C166.135 102.346 165.838 102.572 165.464 102.716C165.093 102.862 164.679 102.935 164.224 102.935ZM164.194 99.8012C164.546 99.8012 164.843 99.7208 165.085 99.5599C165.328 99.399 165.512 99.1675 165.639 98.8655C165.765 98.5635 165.828 98.2021 165.828 97.7813C165.828 97.3704 165.766 97.0078 165.642 96.6934C165.519 96.3791 165.335 96.1328 165.093 95.9545C164.85 95.7763 164.551 95.6872 164.194 95.6872C163.823 95.6872 163.514 95.7813 163.266 95.9694C163.021 96.1575 162.837 96.41 162.713 96.7268C162.592 97.0437 162.531 97.3952 162.531 97.7813C162.531 98.1774 162.593 98.5277 162.717 98.8321C162.843 99.1341 163.028 99.3717 163.273 99.545C163.521 99.7158 163.828 99.8012 164.194 99.8012Z" fill="#1F2937"/>
<rect x="34.8734" y="82.3292" width="230.253" height="29.6964" rx="2.61396" stroke="#D1D5DB" stroke-width="0.746847"/>
<path d="M35.3354 135.918V128.314H38.0459C38.6375 128.314 39.1277 128.421 39.5163 128.637C39.9049 128.852 40.1958 129.147 40.3888 129.52C40.5819 129.892 40.6785 130.31 40.6785 130.775C40.6785 131.243 40.5807 131.664 40.3851 132.038C40.1921 132.409 39.9 132.704 39.5089 132.922C39.1202 133.137 38.6313 133.245 38.0422 133.245H36.1783V132.272H37.9383C38.312 132.272 38.6153 132.207 38.8479 132.079C39.0806 131.948 39.2514 131.769 39.3603 131.544C39.4693 131.319 39.5237 131.063 39.5237 130.775C39.5237 130.488 39.4693 130.233 39.3603 130.011C39.2514 129.788 39.0794 129.613 38.8442 129.487C38.6115 129.361 38.3046 129.298 37.9234 129.298H36.4828V135.918H35.3354ZM43.5431 136.044C43.1817 136.044 42.8549 135.977 42.5628 135.844C42.2707 135.708 42.0393 135.511 41.8685 135.253C41.7002 134.996 41.616 134.68 41.616 134.307C41.616 133.985 41.6779 133.72 41.8016 133.512C41.9254 133.304 42.0925 133.139 42.3029 133.018C42.5133 132.897 42.7485 132.805 43.0084 132.743C43.2683 132.681 43.5331 132.634 43.803 132.602C44.1446 132.563 44.4218 132.53 44.6347 132.506C44.8476 132.478 45.0023 132.435 45.0988 132.376C45.1953 132.316 45.2436 132.22 45.2436 132.086V132.06C45.2436 131.736 45.152 131.485 44.9688 131.306C44.7881 131.128 44.5183 131.039 44.1594 131.039C43.7856 131.039 43.4911 131.122 43.2757 131.288C43.0628 131.451 42.9156 131.633 42.8339 131.834L41.7905 131.596C41.9143 131.249 42.095 130.97 42.3326 130.757C42.5727 130.542 42.8487 130.386 43.1606 130.289C43.4725 130.19 43.8005 130.141 44.1446 130.141C44.3723 130.141 44.6136 130.168 44.8686 130.222C45.126 130.274 45.3661 130.371 45.5889 130.512C45.8142 130.653 45.9986 130.855 46.1422 131.117C46.2857 131.377 46.3575 131.715 46.3575 132.131V135.918H45.2733V135.138H45.2288C45.157 135.282 45.0493 135.423 44.9057 135.562C44.7622 135.7 44.5777 135.815 44.3525 135.907C44.1272 135.998 43.8574 136.044 43.5431 136.044ZM43.7844 135.153C44.0913 135.153 44.3537 135.092 44.5716 134.971C44.7919 134.85 44.9589 134.691 45.0728 134.496C45.1892 134.298 45.2473 134.086 45.2473 133.861V133.126C45.2077 133.165 45.131 133.203 45.0171 133.237C44.9057 133.269 44.7782 133.298 44.6347 133.323C44.4911 133.345 44.3513 133.366 44.2151 133.386C44.079 133.403 43.9651 133.418 43.8735 133.43C43.6582 133.457 43.4614 133.503 43.2831 133.568C43.1074 133.632 42.9663 133.725 42.8599 133.846C42.7559 133.965 42.7039 134.123 42.7039 134.321C42.7039 134.596 42.8054 134.804 43.0084 134.945C43.2114 135.084 43.47 135.153 43.7844 135.153ZM52.1099 131.607L51.1037 131.785C51.0616 131.657 50.9948 131.534 50.9032 131.418C50.8141 131.301 50.6928 131.206 50.5393 131.132C50.3858 131.058 50.194 131.021 49.9638 131.021C49.6494 131.021 49.387 131.091 49.1766 131.232C48.9662 131.371 48.861 131.55 48.861 131.771C48.861 131.961 48.9316 132.115 49.0727 132.231C49.2138 132.347 49.4415 132.443 49.7559 132.517L50.6618 132.725C51.1866 132.846 51.5777 133.033 51.8351 133.285C52.0926 133.538 52.2213 133.866 52.2213 134.269C52.2213 134.611 52.1223 134.915 51.9243 135.183C51.7287 135.448 51.4552 135.656 51.1037 135.807C50.7547 135.958 50.3499 136.033 49.8895 136.033C49.2509 136.033 48.7298 135.897 48.3263 135.625C47.9229 135.35 47.6753 134.96 47.5837 134.455L48.6568 134.292C48.7236 134.571 48.861 134.783 49.0689 134.927C49.2769 135.068 49.5479 135.138 49.8821 135.138C50.246 135.138 50.5368 135.063 50.7547 134.912C50.9725 134.758 51.0814 134.571 51.0814 134.351C51.0814 134.173 51.0146 134.023 50.8809 133.902C50.7497 133.781 50.548 133.689 50.2757 133.627L49.3103 133.415C48.7781 133.294 48.3845 133.101 48.1296 132.836C47.8771 132.571 47.7508 132.236 47.7508 131.83C47.7508 131.493 47.8449 131.199 48.033 130.946C48.2211 130.694 48.4811 130.497 48.8127 130.356C49.1444 130.212 49.5244 130.141 49.9526 130.141C50.569 130.141 51.0542 130.274 51.4081 130.542C51.7621 130.806 51.996 131.162 52.1099 131.607ZM57.7156 131.607L56.7094 131.785C56.6673 131.657 56.6005 131.534 56.5089 131.418C56.4198 131.301 56.2985 131.206 56.145 131.132C55.9916 131.058 55.7997 131.021 55.5695 131.021C55.2551 131.021 54.9928 131.091 54.7824 131.232C54.5719 131.371 54.4667 131.55 54.4667 131.771C54.4667 131.961 54.5373 132.115 54.6784 132.231C54.8195 132.347 55.0472 132.443 55.3616 132.517L56.2676 132.725C56.7923 132.846 57.1834 133.033 57.4409 133.285C57.6983 133.538 57.827 133.866 57.827 134.269C57.827 134.611 57.728 134.915 57.53 135.183C57.3344 135.448 57.0609 135.656 56.7094 135.807C56.3604 135.958 55.9557 136.033 55.4953 136.033C54.8566 136.033 54.3356 135.897 53.9321 135.625C53.5286 135.35 53.2811 134.96 53.1895 134.455L54.2625 134.292C54.3294 134.571 54.4667 134.783 54.6747 134.927C54.8826 135.068 55.1537 135.138 55.4878 135.138C55.8517 135.138 56.1426 135.063 56.3604 134.912C56.5782 134.758 56.6871 134.571 56.6871 134.351C56.6871 134.173 56.6203 134.023 56.4866 133.902C56.3554 133.781 56.1537 133.689 55.8814 133.627L54.916 133.415C54.3838 133.294 53.9902 133.101 53.7353 132.836C53.4828 132.571 53.3566 132.236 53.3566 131.83C53.3566 131.493 53.4506 131.199 53.6387 130.946C53.8269 130.694 54.0868 130.497 54.4185 130.356C54.7502 130.212 55.1301 130.141 55.5584 130.141C56.1747 130.141 56.6599 130.274 57.0139 130.542C57.3678 130.806 57.6018 131.162 57.7156 131.607ZM60.2841 135.918L58.6058 130.215H59.7532L60.8708 134.403H60.9265L62.0478 130.215H63.1951L64.309 134.384H64.3647L65.4749 130.215H66.6222L64.9477 135.918H63.8152L62.6567 131.8H62.5713L61.4129 135.918H60.2841ZM69.9045 136.033C69.3699 136.033 68.9033 135.911 68.5047 135.665C68.1062 135.42 67.7968 135.078 67.5765 134.637C67.3562 134.196 67.246 133.681 67.246 133.092C67.246 132.501 67.3562 131.983 67.5765 131.54C67.7968 131.097 68.1062 130.753 68.5047 130.508C68.9033 130.263 69.3699 130.141 69.9045 130.141C70.4392 130.141 70.9058 130.263 71.3043 130.508C71.7029 130.753 72.0123 131.097 72.2326 131.54C72.4529 131.983 72.5631 132.501 72.5631 133.092C72.5631 133.681 72.4529 134.196 72.2326 134.637C72.0123 135.078 71.7029 135.42 71.3043 135.665C70.9058 135.911 70.4392 136.033 69.9045 136.033ZM69.9082 135.101C70.2548 135.101 70.5419 135.01 70.7697 134.826C70.9974 134.643 71.1657 134.399 71.2746 134.095C71.386 133.79 71.4417 133.455 71.4417 133.089C71.4417 132.725 71.386 132.391 71.2746 132.086C71.1657 131.779 70.9974 131.533 70.7697 131.347C70.5419 131.162 70.2548 131.069 69.9082 131.069C69.5592 131.069 69.2696 131.162 69.0394 131.347C68.8117 131.533 68.6421 131.779 68.5307 132.086C68.4218 132.391 68.3673 132.725 68.3673 133.089C68.3673 133.455 68.4218 133.79 68.5307 134.095C68.6421 134.399 68.8117 134.643 69.0394 134.826C69.2696 135.01 69.5592 135.101 69.9082 135.101ZM73.8023 135.918V130.215H74.8753V131.121H74.9347C75.0387 130.814 75.2219 130.572 75.4843 130.397C75.7491 130.218 76.0487 130.129 76.3828 130.129C76.4521 130.129 76.5338 130.132 76.6279 130.137C76.7244 130.142 76.7999 130.148 76.8544 130.155V131.217C76.8098 131.205 76.7306 131.191 76.6167 131.176C76.5029 131.159 76.389 131.15 76.2751 131.15C76.0128 131.15 75.7788 131.206 75.5734 131.318C75.3704 131.426 75.2095 131.579 75.0907 131.774C74.9719 131.967 74.9125 132.188 74.9125 132.435V135.918H73.8023ZM79.7459 136.029C79.2855 136.029 78.8746 135.912 78.5132 135.677C78.1542 135.439 77.8721 135.101 77.6666 134.663C77.4636 134.222 77.3621 133.694 77.3621 133.078C77.3621 132.461 77.4649 131.934 77.6703 131.496C77.8782 131.058 78.1629 130.722 78.5243 130.49C78.8857 130.257 79.2954 130.141 79.7533 130.141C80.1073 130.141 80.392 130.2 80.6073 130.319C80.8251 130.435 80.9935 130.571 81.1123 130.727C81.2336 130.883 81.3276 131.021 81.3945 131.139H81.4613V128.314H82.5715V135.918H81.4873V135.031H81.3945C81.3276 135.152 81.2311 135.29 81.1049 135.446C80.9811 135.602 80.8103 135.739 80.5925 135.855C80.3746 135.971 80.0924 136.029 79.7459 136.029ZM79.9909 135.083C80.3103 135.083 80.5801 134.998 80.8004 134.83C81.0232 134.659 81.1915 134.423 81.3054 134.121C81.4217 133.819 81.4799 133.467 81.4799 133.066C81.4799 132.67 81.4229 132.324 81.3091 132.027C81.1952 131.73 81.0281 131.498 80.8078 131.332C80.5875 131.167 80.3152 131.084 79.9909 131.084C79.6568 131.084 79.3783 131.17 79.1555 131.344C78.9327 131.517 78.7644 131.753 78.6505 132.053C78.5392 132.352 78.4835 132.69 78.4835 133.066C78.4835 133.448 78.5404 133.79 78.6543 134.095C78.7681 134.399 78.9364 134.641 79.1592 134.819C79.3845 134.995 79.6617 135.083 79.9909 135.083Z" fill="#1F2937"/>
<rect x="34.8734" y="144.279" width="230.253" height="29.6964" rx="2.61396" fill="white"/>
<path d="M46.4016 161.231C46.1021 161.231 45.8286 161.158 45.5811 161.012C45.3335 160.863 45.1355 160.665 44.987 160.418C44.8409 160.17 44.7679 159.897 44.7679 159.597C44.7679 159.295 44.8409 159.022 44.987 158.777C45.1355 158.529 45.3335 158.332 45.5811 158.186C45.8286 158.038 46.1021 157.963 46.4016 157.963C46.7036 157.963 46.9772 158.038 47.2222 158.186C47.4698 158.332 47.6665 158.529 47.8126 158.777C47.9611 159.022 48.0354 159.295 48.0354 159.597C48.0354 159.897 47.9611 160.17 47.8126 160.418C47.6665 160.665 47.4698 160.863 47.2222 161.012C46.9772 161.158 46.7036 161.231 46.4016 161.231ZM52.2831 161.231C51.9835 161.231 51.71 161.158 51.4625 161.012C51.215 160.863 51.0169 160.665 50.8684 160.418C50.7224 160.17 50.6493 159.897 50.6493 159.597C50.6493 159.295 50.7224 159.022 50.8684 158.777C51.0169 158.529 51.215 158.332 51.4625 158.186C51.71 158.038 51.9835 157.963 52.2831 157.963C52.5851 157.963 52.8586 158.038 53.1036 158.186C53.3512 158.332 53.548 158.529 53.694 158.777C53.8425 159.022 53.9168 159.295 53.9168 159.597C53.9168 159.897 53.8425 160.17 53.694 160.418C53.548 160.665 53.3512 160.863 53.1036 161.012C52.8586 161.158 52.5851 161.231 52.2831 161.231ZM58.1645 161.231C57.865 161.231 57.5914 161.158 57.3439 161.012C57.0964 160.863 56.8983 160.665 56.7498 160.418C56.6038 160.17 56.5308 159.897 56.5308 159.597C56.5308 159.295 56.6038 159.022 56.7498 158.777C56.8983 158.529 57.0964 158.332 57.3439 158.186C57.5914 158.038 57.865 157.963 58.1645 157.963C58.4665 157.963 58.74 158.038 58.9851 158.186C59.2326 158.332 59.4294 158.529 59.5754 158.777C59.7239 159.022 59.7982 159.295 59.7982 159.597C59.7982 159.897 59.7239 160.17 59.5754 160.418C59.4294 160.665 59.2326 160.863 58.9851 161.012C58.74 161.158 58.4665 161.231 58.1645 161.231ZM64.0459 161.231C63.7464 161.231 63.4729 161.158 63.2253 161.012C62.9778 160.863 62.7798 160.665 62.6312 160.418C62.4852 160.17 62.4122 159.897 62.4122 159.597C62.4122 159.295 62.4852 159.022 62.6312 158.777C62.7798 158.529 62.9778 158.332 63.2253 158.186C63.4729 158.038 63.7464 157.963 64.0459 157.963C64.3479 157.963 64.6214 158.038 64.8665 158.186C65.114 158.332 65.3108 158.529 65.4568 158.777C65.6054 159.022 65.6796 159.295 65.6796 159.597C65.6796 159.897 65.6054 160.17 65.4568 160.418C65.3108 160.665 65.114 160.863 64.8665 161.012C64.6214 161.158 64.3479 161.231 64.0459 161.231ZM69.9273 161.231C69.6278 161.231 69.3543 161.158 69.1067 161.012C68.8592 160.863 68.6612 160.665 68.5127 160.418C68.3666 160.17 68.2936 159.897 68.2936 159.597C68.2936 159.295 68.3666 159.022 68.5127 158.777C68.6612 158.529 68.8592 158.332 69.1067 158.186C69.3543 158.038 69.6278 157.963 69.9273 157.963C70.2293 157.963 70.5028 158.038 70.7479 158.186C70.9954 158.332 71.1922 158.529 71.3383 158.777C71.4868 159.022 71.561 159.295 71.561 159.597C71.561 159.897 71.4868 160.17 71.3383 160.418C71.1922 160.665 70.9954 160.863 70.7479 161.012C70.5028 161.158 70.2293 161.231 69.9273 161.231ZM75.8087 161.231C75.5092 161.231 75.2357 161.158 74.9882 161.012C74.7406 160.863 74.5426 160.665 74.3941 160.418C74.248 160.17 74.175 159.897 74.175 159.597C74.175 159.295 74.248 159.022 74.3941 158.777C74.5426 158.529 74.7406 158.332 74.9882 158.186C75.2357 158.038 75.5092 157.963 75.8087 157.963C76.1107 157.963 76.3843 158.038 76.6293 158.186C76.8768 158.332 77.0736 158.529 77.2197 158.777C77.3682 159.022 77.4425 159.295 77.4425 159.597C77.4425 159.897 77.3682 160.17 77.2197 160.418C77.0736 160.665 76.8768 160.863 76.6293 161.012C76.3843 161.158 76.1107 161.231 75.8087 161.231Z" fill="#1F2937"/>
<rect x="34.8734" y="144.279" width="230.253" height="29.6964" rx="2.61396" stroke="#D1D5DB" stroke-width="0.746847"/>
<rect x="34.5" y="185.868" width="231" height="30" rx="2.98739" fill="#2A86FF"/>
<path d="M137.983 198.761C137.943 198.41 137.78 198.137 137.493 197.944C137.206 197.749 136.844 197.651 136.409 197.651C136.097 197.651 135.827 197.7 135.599 197.799C135.371 197.896 135.194 198.03 135.068 198.2C134.944 198.369 134.882 198.561 134.882 198.776C134.882 198.957 134.925 199.113 135.009 199.244C135.095 199.375 135.208 199.485 135.347 199.574C135.488 199.661 135.639 199.734 135.8 199.793C135.961 199.85 136.115 199.897 136.264 199.934L137.006 200.127C137.249 200.187 137.498 200.267 137.753 200.369C138.008 200.47 138.244 200.604 138.462 200.77C138.68 200.936 138.855 201.141 138.989 201.386C139.125 201.631 139.193 201.925 139.193 202.266C139.193 202.697 139.082 203.079 138.859 203.413C138.639 203.748 138.318 204.011 137.897 204.204C137.479 204.397 136.973 204.494 136.379 204.494C135.81 204.494 135.317 204.404 134.901 204.223C134.485 204.042 134.16 203.786 133.925 203.454C133.689 203.12 133.559 202.724 133.535 202.266H134.686C134.708 202.541 134.797 202.77 134.953 202.953C135.111 203.134 135.313 203.269 135.558 203.358C135.806 203.444 136.077 203.488 136.371 203.488C136.696 203.488 136.984 203.437 137.237 203.335C137.492 203.231 137.692 203.088 137.838 202.905C137.984 202.719 138.057 202.503 138.057 202.255C138.057 202.03 137.993 201.845 137.864 201.702C137.738 201.558 137.566 201.439 137.348 201.345C137.133 201.251 136.889 201.168 136.616 201.097L135.718 200.851C135.109 200.686 134.626 200.442 134.27 200.12C133.916 199.798 133.739 199.372 133.739 198.843C133.739 198.405 133.858 198.022 134.095 197.695C134.333 197.369 134.655 197.115 135.061 196.934C135.467 196.751 135.925 196.659 136.435 196.659C136.949 196.659 137.404 196.75 137.797 196.931C138.193 197.111 138.505 197.36 138.733 197.677C138.961 197.991 139.079 198.353 139.089 198.761H137.983ZM140.475 204.368V198.664H141.585V204.368H140.475ZM141.036 197.784C140.843 197.784 140.677 197.72 140.538 197.591C140.402 197.46 140.334 197.304 140.334 197.124C140.334 196.94 140.402 196.784 140.538 196.656C140.677 196.525 140.843 196.459 141.036 196.459C141.229 196.459 141.394 196.525 141.53 196.656C141.668 196.784 141.738 196.94 141.738 197.124C141.738 197.304 141.668 197.46 141.53 197.591C141.394 197.72 141.229 197.784 141.036 197.784ZM145.47 206.625C145.017 206.625 144.627 206.566 144.301 206.447C143.976 206.328 143.711 206.171 143.506 205.975C143.301 205.78 143.147 205.566 143.046 205.333L144 204.939C144.067 205.048 144.156 205.163 144.267 205.285C144.381 205.409 144.534 205.514 144.728 205.6C144.923 205.687 145.174 205.73 145.481 205.73C145.902 205.73 146.25 205.628 146.525 205.422C146.799 205.219 146.937 204.895 146.937 204.449V203.328H146.866C146.799 203.449 146.703 203.584 146.577 203.733C146.453 203.881 146.282 204.01 146.064 204.119C145.846 204.228 145.563 204.282 145.214 204.282C144.763 204.282 144.357 204.177 143.996 203.967C143.637 203.754 143.353 203.441 143.142 203.027C142.934 202.611 142.83 202.1 142.83 201.494C142.83 200.887 142.933 200.368 143.138 199.934C143.346 199.501 143.631 199.169 143.992 198.939C144.354 198.707 144.763 198.59 145.221 198.59C145.575 198.59 145.861 198.65 146.079 198.768C146.297 198.885 146.466 199.021 146.588 199.177C146.712 199.333 146.807 199.47 146.874 199.589H146.955V198.664H148.043V204.494C148.043 204.984 147.929 205.386 147.702 205.701C147.474 206.015 147.166 206.248 146.777 206.399C146.391 206.55 145.955 206.625 145.47 206.625ZM145.459 203.361C145.778 203.361 146.048 203.287 146.268 203.139C146.491 202.988 146.66 202.772 146.773 202.493C146.89 202.21 146.948 201.873 146.948 201.479C146.948 201.095 146.891 200.757 146.777 200.465C146.663 200.173 146.496 199.945 146.276 199.782C146.056 199.616 145.783 199.533 145.459 199.533C145.125 199.533 144.846 199.62 144.624 199.793C144.401 199.964 144.232 200.197 144.119 200.491C144.007 200.786 143.952 201.115 143.952 201.479C143.952 201.853 144.008 202.181 144.122 202.463C144.236 202.745 144.405 202.965 144.627 203.124C144.853 203.282 145.13 203.361 145.459 203.361ZM150.642 200.981V204.368H149.532V198.664H150.598V199.593H150.668C150.8 199.291 151.005 199.048 151.285 198.865C151.567 198.682 151.922 198.59 152.35 198.59C152.739 198.59 153.079 198.672 153.371 198.835C153.664 198.996 153.89 199.236 154.051 199.556C154.212 199.875 154.292 200.27 154.292 200.74V204.368H153.182V200.874C153.182 200.46 153.074 200.137 152.859 199.905C152.644 199.669 152.348 199.552 151.972 199.552C151.714 199.552 151.485 199.608 151.285 199.719C151.087 199.83 150.93 199.994 150.813 200.209C150.699 200.422 150.642 200.679 150.642 200.981ZM158.548 204.368V198.664H159.659V204.368H158.548ZM159.109 197.784C158.916 197.784 158.75 197.72 158.611 197.591C158.475 197.46 158.407 197.304 158.407 197.124C158.407 196.94 158.475 196.784 158.611 196.656C158.75 196.525 158.916 196.459 159.109 196.459C159.302 196.459 159.467 196.525 159.603 196.656C159.741 196.784 159.811 196.94 159.811 197.124C159.811 197.304 159.741 197.46 159.603 197.591C159.467 197.72 159.302 197.784 159.109 197.784ZM162.262 200.981V204.368H161.152V198.664H162.218V199.593H162.288C162.419 199.291 162.625 199.048 162.905 198.865C163.187 198.682 163.542 198.59 163.97 198.59C164.359 198.59 164.699 198.672 164.991 198.835C165.283 198.996 165.51 199.236 165.671 199.556C165.832 199.875 165.912 200.27 165.912 200.74V204.368H164.802V200.874C164.802 200.46 164.694 200.137 164.479 199.905C164.264 199.669 163.968 199.552 163.592 199.552C163.334 199.552 163.105 199.608 162.905 199.719C162.707 199.83 162.549 199.994 162.433 200.209C162.319 200.422 162.262 200.679 162.262 200.981Z" fill="white"/>
</svg>
