<svg width="330" height="49" viewBox="0 0 330 49" fill="none" xmlns="http://www.w3.org/2000/svg">
<g clip-path="url(#clip0_876_75404)">
<path d="M96.9298 20.3735H89.6274C89.5131 19.4889 89.2333 18.6332 88.8023 17.8503C88.4037 17.1182 87.8605 16.4731 87.2049 15.9536C86.5362 15.4207 85.7747 15.0137 84.958 14.753C84.074 14.468 83.1492 14.327 82.2196 14.3354C80.5662 14.2956 78.9391 14.7504 77.5503 15.6404C76.1731 16.5863 75.1052 17.911 74.4783 19.4512C73.6914 21.3661 73.3148 23.4224 73.3724 25.4893C73.3088 27.5906 73.6854 29.6821 74.4783 31.6318C75.1133 33.1583 76.1879 34.4655 77.5678 35.3903C78.9459 36.2411 80.5438 36.6764 82.1669 36.6432C83.0825 36.6542 83.9944 36.5251 84.8702 36.2604C86.4841 35.805 87.864 34.7605 88.7321 33.3371C89.1756 32.5849 89.4789 31.7597 89.6274 30.9009H97C96.801 32.4808 96.3195 34.0128 95.5781 35.4252C94.8097 36.8892 93.7809 38.2038 92.5413 39.3055C91.2102 40.4797 89.6678 41.3947 87.9948 42.0027C86.0887 42.6896 84.072 43.0258 82.0441 42.9945C79.1787 43.0686 76.3445 42.3902 73.8288 41.0282C71.3806 39.6118 69.3943 37.5281 68.1063 35.0249C66.7187 32.0495 66 28.8107 66 25.5328C66 22.2548 66.7187 19.016 68.1063 16.0406C69.401 13.541 71.3936 11.4631 73.8464 10.0548C76.3445 8.67152 79.1654 7.96343 82.0265 8.00145C83.9144 7.98499 85.7928 8.26695 87.5911 8.8367C89.243 9.3606 90.784 10.1804 92.1376 11.2554C93.4662 12.3276 94.5645 13.653 95.3675 15.1532C96.2135 16.7809 96.7435 18.5517 96.9298 20.3735Z" fill="#0B3042"/>
<path d="M113.991 42.9957C111.58 43.0542 109.197 42.4727 107.09 41.3118C105.157 40.208 103.593 38.569 102.59 36.5968C101.543 34.3767 101 31.9566 101 29.5067C101 27.0568 101.543 24.6367 102.59 22.4166C103.593 20.4444 105.157 18.8054 107.09 17.7016C109.218 16.5843 111.591 16 114 16C116.409 16 118.782 16.5843 120.91 17.7016C122.839 18.8103 124.402 20.448 125.41 22.4166C126.457 24.6367 127 27.0568 127 29.5067C127 31.9566 126.457 34.3767 125.41 36.5968C124.402 38.5654 122.839 40.2031 120.91 41.3118C118.798 42.475 116.408 43.0565 113.991 42.9957ZM113.991 37.3945C115.1 37.4335 116.185 37.0676 117.038 36.3664C117.877 35.5998 118.495 34.6275 118.831 33.5481C119.667 30.9052 119.667 28.0728 118.831 25.4299C118.495 24.3505 117.877 23.3781 117.038 22.6116C116.185 21.9104 115.1 21.5444 113.991 21.5835C112.872 21.5472 111.777 21.9123 110.908 22.6116C110.065 23.3743 109.445 24.348 109.115 25.4299C108.279 28.0728 108.279 30.9052 109.115 33.5481C109.445 34.63 110.065 35.6037 110.908 36.3664C111.788 37.0675 112.897 37.4267 114.027 37.3768L113.991 37.3945Z" fill="#0B3042"/>
<path d="M131 42V16.3832H138.135V20.8383H138.402C138.778 19.412 139.624 18.146 140.81 17.236C141.939 16.4192 143.311 15.9853 144.717 16.0004C145.074 16.0004 145.484 16.0004 145.894 16.0004C146.267 16.0382 146.637 16.1021 147 16.1918V22.4916C146.539 22.3633 146.068 22.2759 145.591 22.2305C145.042 22.1505 144.487 22.1098 143.932 22.1087C142.931 22.0915 141.942 22.3252 141.06 22.7874C140.237 23.2258 139.552 23.8758 139.08 24.6669C138.584 25.5077 138.332 26.464 138.349 27.434V41.9304L131 42Z" fill="#0B3042"/>
<path d="M160.977 42.9941C158.556 43.0648 156.159 42.5027 154.024 41.3635C152.11 40.2798 150.558 38.6588 149.561 36.7023C148.533 34.4795 148 32.0608 148 29.613C148 27.1651 148.533 24.7464 149.561 22.5237C150.551 20.5511 152.088 18.9028 153.989 17.7738C156.017 16.5787 158.337 15.9654 160.692 16.0015C162.336 15.9906 163.968 16.2727 165.511 16.8345C166.983 17.3654 168.323 18.2056 169.441 19.298C170.608 20.4713 171.501 21.8876 172.055 23.4453C172.716 25.3111 173.035 27.2801 172.997 29.2585V31.2435H150.895V26.7418H166.151C166.177 25.7767 165.944 24.8222 165.476 23.977C165.034 23.1846 164.382 22.5285 163.591 22.0806C162.715 21.6044 161.734 21.3548 160.737 21.3548C159.74 21.3548 158.758 21.6044 157.883 22.0806C157.048 22.5622 156.36 23.2605 155.891 24.101C155.42 24.96 155.169 25.9222 155.162 26.9013V31.1726C155.135 32.331 155.385 33.4792 155.891 34.5223C156.344 35.4286 157.055 36.1811 157.936 36.6846C158.902 37.2219 159.995 37.4911 161.101 37.4644C161.851 37.4706 162.596 37.3508 163.306 37.1099C163.972 36.9206 164.582 36.5741 165.084 36.0997C165.567 35.6329 165.938 35.0634 166.169 34.4337L172.89 34.8768C172.579 36.4348 171.862 37.8836 170.81 39.0772C169.695 40.307 168.306 41.2599 166.756 41.8598C164.923 42.6124 162.959 42.9978 160.977 42.9941Z" fill="#0B3042"/>
<path d="M189.586 42.9978C187.218 43.042 184.882 42.431 182.828 41.2299C180.963 40.1133 179.46 38.4666 178.502 36.492C177.512 34.2956 177 31.9077 177 29.4913C177 27.0749 177.512 24.687 178.502 22.4906C179.477 20.5272 180.984 18.8891 182.845 17.7704C184.875 16.5718 187.188 15.9605 189.534 16.0025C191.558 15.963 193.564 16.3859 195.406 17.2401C197.047 18.0189 198.441 19.2498 199.429 20.7933C200.418 22.3368 200.962 24.1312 201 25.9733H194.294C194.165 24.7849 193.644 23.676 192.817 22.8265C192.394 22.4255 191.896 22.1143 191.353 21.9109C190.811 21.7076 190.233 21.6162 189.656 21.642C188.63 21.6203 187.624 21.9365 186.789 22.5436C185.918 23.218 185.255 24.1321 184.878 25.1777C184.395 26.5124 184.165 27.9281 184.201 29.3499C184.168 30.7931 184.392 32.2304 184.861 33.5928C185.237 34.6485 185.899 35.5741 186.772 36.2622C187.613 36.8695 188.624 37.1856 189.656 37.1638C190.414 37.1799 191.164 37.0102 191.845 36.6688C192.491 36.3113 193.045 35.8022 193.46 35.1838C193.908 34.4734 194.192 33.6699 194.294 32.8326H201C200.93 34.7119 200.379 36.54 199.402 38.1361C198.44 39.6617 197.081 40.8857 195.475 41.6719C193.642 42.5778 191.624 43.032 189.586 42.9978Z" fill="#0B3042"/>
<path d="M206 42V16.3834H213.135V20.8384H213.402C213.778 19.4121 214.624 18.1461 215.81 17.2361C216.938 16.417 218.311 15.9828 219.717 16.0005C220.074 16.0005 220.466 16.0005 220.894 16.0005C221.267 16.0383 221.637 16.1023 222 16.1919V22.4917C221.539 22.3634 221.068 22.276 220.591 22.2307C220.042 22.1506 219.487 22.1099 218.932 22.1088C217.931 22.0916 216.942 22.3253 216.06 22.7875C215.237 23.2259 214.552 23.8759 214.08 24.667C213.584 25.5078 213.332 26.4641 213.349 27.434V41.9304L206 42Z" fill="#0B3042"/>
<path d="M241.758 31.7627V17.0695H249V42.6652H242.042V38.0052H241.776C241.216 39.4844 240.191 40.7509 238.848 41.6219C237.369 42.5717 235.627 43.0515 233.86 42.9956C232.242 43.0267 230.647 42.6239 229.246 41.8306C227.909 41.0356 226.831 39.8835 226.139 38.5094C225.347 36.8823 224.958 35.0951 225.004 33.2929V17H232.245V32.0236C232.187 33.3278 232.63 34.6059 233.488 35.6056C233.903 36.047 234.413 36.394 234.98 36.6223C235.547 36.8505 236.159 36.9546 236.771 36.9271C237.625 36.9292 238.466 36.7262 239.22 36.3359C239.962 35.9245 240.575 35.3235 240.995 34.597C241.515 33.7405 241.779 32.7587 241.758 31.7627Z" fill="#0B3042"/>
<path d="M257.991 13.1652C256.94 13.1775 255.925 12.7979 255.161 12.1069C254.79 11.7881 254.495 11.3972 254.295 10.9603C254.094 10.5235 253.994 10.0508 254 9.57383C253.994 9.09946 254.095 8.62939 254.295 8.19538C254.495 7.76138 254.791 7.37356 255.161 7.05816C255.932 6.37779 256.942 6 257.991 6C259.04 6 260.05 6.37779 260.821 7.05816C261.194 7.37269 261.492 7.75994 261.695 8.19386C261.899 8.62778 262.003 9.09831 262 9.57383C262.003 10.0519 261.899 10.5251 261.696 10.9619C261.492 11.3986 261.194 11.789 260.821 12.1069C260.058 12.7995 259.043 13.1794 257.991 13.1652ZM254.272 42V16.4616H261.673V42H254.272Z" fill="#0B3042"/>
<path d="M281.527 16.1287V21.4413H266V16.1287H281.527ZM269.522 10H276.672V33.8202C276.648 34.3457 276.75 34.8694 276.97 35.3481C277.156 35.6914 277.461 35.9566 277.829 36.0946C278.23 36.2542 278.659 36.331 279.091 36.3203C279.431 36.3165 279.771 36.2875 280.107 36.2335L280.878 36.0946L282 41.3031C281.65 41.4246 281.141 41.5462 280.493 41.7024C279.714 41.8629 278.922 41.9558 278.127 41.9802C276.581 42.0734 275.033 41.8366 273.588 41.2858C272.356 40.8095 271.303 39.9664 270.574 38.8725C269.817 37.6164 269.451 36.1669 269.522 34.7057V10Z" fill="#0B3042"/>
<path d="M297.977 42.9936C295.562 43.0671 293.17 42.5047 291.042 41.3631C289.119 40.2856 287.559 38.6634 286.561 36.702C285.533 34.4792 285 32.0605 285 29.6128C285 27.165 285.533 24.7463 286.561 22.5236C287.551 20.551 289.088 18.9027 290.989 17.7738C293.017 16.5787 295.337 15.9654 297.692 16.0015C299.341 15.9923 300.979 16.2743 302.529 16.8345C303.995 17.3656 305.33 18.2059 306.441 19.298C307.608 20.4713 308.501 21.8875 309.055 23.4452C309.716 25.311 310.035 27.28 309.997 29.2583V31.2433H287.895V26.7416H303.08C303.106 25.7765 302.873 24.8221 302.404 23.9769C301.967 23.1811 301.314 22.5239 300.52 22.0805C299.67 21.6209 298.712 21.3946 297.746 21.4247C296.722 21.4047 295.712 21.6685 294.83 22.1868C294.001 22.6709 293.319 23.369 292.856 24.2073C292.371 25.0617 292.114 26.0258 292.109 27.0075V31.2787C292.082 32.4371 292.332 33.5853 292.838 34.6284C293.29 35.5347 294.002 36.2871 294.883 36.7906C295.849 37.3278 296.942 37.5971 298.048 37.5704C298.798 37.5766 299.543 37.4568 300.253 37.2159C300.918 37.0266 301.528 36.6801 302.031 36.2057C302.514 35.739 302.885 35.1694 303.116 34.5397L309.837 34.9828C309.526 36.5408 308.808 37.9896 307.757 39.1832C306.647 40.4191 305.257 41.373 303.702 41.9657C301.879 42.6751 299.934 43.0242 297.977 42.9936Z" fill="#0B3042"/>
<path d="M314 41.9479V16.3826H321.135V20.8287H321.402C321.778 19.4053 322.624 18.1418 323.81 17.2336C324.938 16.4162 326.311 15.9829 327.717 16.0005C328.074 16.0005 328.466 16.0005 328.894 16.0005C329.267 16.0382 329.637 16.1021 330 16.1916V22.4787C329.539 22.3506 329.068 22.2634 328.591 22.2182C328.042 22.1383 327.487 22.0977 326.932 22.0966C325.931 22.0794 324.942 22.3126 324.06 22.7739C323.167 23.2232 322.429 23.9176 321.938 24.7712C321.442 25.6103 321.189 26.5647 321.206 27.5327V42L314 41.9479Z" fill="#0B3042"/>
<path d="M8.02319 32.3286C7.29381 32.4322 6.59916 32.6738 5.85241 32.8464C4.50698 29.8039 3.95165 26.4743 4.23736 23.1631C4.23736 22.1447 4.56731 21.1435 4.67151 20.1251C4.70279 19.8734 4.68206 19.618 4.61059 19.3745C4.53911 19.131 4.41839 18.9046 4.25582 18.709C4.09326 18.5135 3.89226 18.353 3.66513 18.2374C3.438 18.1218 3.18952 18.0534 2.93489 18.0366C2.43356 17.9387 1.91361 18.039 1.48554 18.3162C1.05748 18.5934 0.755054 19.0257 0.642554 19.521C0.57964 19.7417 0.533201 19.9667 0.503621 20.1942C0.329959 21.4024 0.173662 22.6107 0 23.8362V25.804C0.0447984 25.9628 0.079594 26.1242 0.104193 26.2873C0.282223 29.3458 1.05479 32.3411 2.37917 35.1076C2.46433 35.2292 2.50998 35.3737 2.50998 35.5219C2.50998 35.67 2.46433 35.8145 2.37917 35.9361C1.41943 37.4516 1.00829 39.2471 1.21364 41.0261C1.41899 42.8052 2.22854 44.4615 3.50867 45.7216C4.78879 46.9816 6.46295 47.7702 8.25477 47.957C10.0466 48.1439 11.8489 47.7178 13.3643 46.7492C14.8797 45.7807 16.0174 44.3274 16.5898 42.6295C17.1621 40.9315 17.1348 39.0903 16.5124 37.4099C15.89 35.7294 14.7097 34.3101 13.1663 33.3863C11.6229 32.4625 9.80869 32.0894 8.02319 32.3286ZM9.03043 44.1178C7.9863 44.1178 6.9844 43.7079 6.24284 42.9773C5.50129 42.2467 5.08008 41.2546 5.07092 40.2168C5.07315 39.682 5.18221 39.153 5.39178 38.6604C5.60136 38.1678 5.90728 37.7214 6.29179 37.3473C6.67629 36.9732 7.13172 36.6786 7.63165 36.4808C8.13159 36.283 8.66608 36.1859 9.20409 36.195C10.2254 36.2523 11.1862 36.6951 11.8899 37.4331C12.5936 38.171 12.9871 39.1483 12.9899 40.165C12.9992 40.6868 12.9035 41.2052 12.7084 41.6897C12.5134 42.1742 12.2229 42.6151 11.8541 42.9866C11.4852 43.358 11.0455 43.6524 10.5606 43.8526C10.0757 44.0528 9.55547 44.1547 9.03043 44.1523V44.1178Z" fill="#0092FF"/>
<path d="M17.0886 5.60722C19.4625 4.61204 22.0154 4.09574 24.5961 4.08893C26.1958 4.14996 27.7901 4.30731 29.3703 4.56012C29.6469 4.62942 29.9349 4.6424 30.2168 4.59826C30.4987 4.55411 30.7684 4.45378 31.0094 4.30342C31.2504 4.15306 31.4576 3.95585 31.6183 3.7239C31.7789 3.49195 31.8897 3.23014 31.9438 2.95457C32.0118 2.6817 32.0182 2.39748 31.9623 2.12194C31.9065 1.8464 31.7898 1.58627 31.6206 1.35992C31.4513 1.13356 31.2336 0.946492 30.9827 0.811927C30.7319 0.677363 30.4541 0.59858 30.1689 0.581132C28.5147 0.285053 26.843 0.0926927 25.164 0.00522146C21.4844 -0.0715613 17.8375 0.699419 14.5151 2.2565C14.3424 2.36343 14.1424 2.42017 13.9383 2.42017C13.7342 2.42017 13.5342 2.36343 13.3615 2.2565C11.7384 1.24219 9.79476 0.845054 7.8951 1.13959C6.04894 1.4148 4.3559 2.30795 3.10177 3.66824C1.84763 5.02854 1.10922 6.77267 1.01119 8.60621C0.91316 10.4398 1.46151 12.2504 2.56367 13.7325C3.66584 15.2146 5.25431 16.2774 7.06094 16.7414C8.86341 17.2025 10.772 17.0437 12.4701 16.2913C14.1681 15.539 15.5535 14.2384 16.3964 12.6054C16.9325 11.5658 17.2266 10.422 17.2573 9.25687C17.288 8.09171 17.0546 6.93443 16.5739 5.869L17.0886 5.60722ZM9.20845 12.9719C8.40964 12.9684 7.62975 12.7326 6.96702 12.294C6.30429 11.8555 5.78838 11.2339 5.48431 10.5075C5.18024 9.78117 5.1016 8.98257 5.2583 8.21235C5.41501 7.44213 5.80004 6.73475 6.36489 6.17933C6.92974 5.62391 7.64914 5.2453 8.43244 5.09122C9.21574 4.93713 10.0279 5.01446 10.7666 5.31345C11.5053 5.61245 12.1374 6.11974 12.5834 6.7714C13.0294 7.42306 13.2693 8.18994 13.2728 8.97541C13.2778 9.50902 13.1732 10.0381 12.9651 10.531C12.7571 11.0239 12.4499 11.4703 12.062 11.8435C11.6741 12.2168 11.2136 12.5091 10.708 12.703C10.2024 12.8969 9.66216 12.9883 9.11972 12.9719H9.20845Z" fill="#0092FF"/>
<path d="M47.7416 14.1772C47.6231 13.998 47.5601 13.7885 47.5601 13.5744C47.5601 13.3602 47.6231 13.1508 47.7416 12.9715C48.7527 11.3957 49.1491 9.50994 48.8567 7.66636C48.5838 5.80996 47.6421 4.11339 46.2048 2.88866C44.7675 1.66394 42.9312 0.993445 41.0337 1.00049C39.1376 0.979553 37.2965 1.62971 35.8429 2.83352C34.3894 4.03733 33.4193 5.71539 33.1079 7.56453C32.7965 9.41366 33.1643 11.3119 34.145 12.9164C35.1256 14.5208 36.6544 15.7256 38.4551 16.3131C40.3214 16.9765 42.3747 16.9024 44.1873 16.1064C44.2918 16.3475 44.3789 16.5025 44.4486 16.6748C45.974 20.3818 46.3382 24.4562 45.494 28.3702C45.4077 28.6406 45.3801 28.926 45.413 29.2077C45.4459 29.4893 45.5386 29.761 45.6849 30.0048C45.8313 30.2487 46.028 30.4593 46.2623 30.6228C46.4967 30.7864 46.7632 30.8991 47.0447 30.9539C47.3186 31.0136 47.6022 31.0154 47.8769 30.9589C48.1515 30.9025 48.411 30.7891 48.6381 30.6264C48.8653 30.4637 49.055 30.2553 49.1947 30.0148C49.3345 29.7744 49.4212 29.5074 49.4491 29.2314C50.5702 24.1643 49.9701 18.8731 47.7416 14.1772ZM40.9814 12.7648C40.4599 12.7649 39.9436 12.6625 39.4624 12.4636C38.9812 12.2648 38.5448 11.9734 38.1785 11.6064C37.8121 11.2395 37.5232 10.8042 37.3284 10.326C37.1336 9.8477 37.0369 9.33593 37.0438 8.8204C37.0505 8.29647 37.1627 7.77911 37.3739 7.29854C37.5851 6.81796 37.891 6.3838 38.2738 6.02141C38.6566 5.65901 39.1086 5.37563 39.6034 5.18784C40.0982 5.00005 40.6259 4.91161 41.1557 4.92767C42.1623 5.01046 43.0992 5.46925 43.7759 6.2107C44.4525 6.95216 44.818 7.92059 44.798 8.919C44.778 9.91741 44.3741 10.8708 43.6683 11.5852C42.9626 12.2996 42.008 12.7214 40.9988 12.7648H40.9814Z" fill="#0092FF"/>
<path d="M44.3611 33.7223C42.9173 33.0772 41.3075 32.8574 39.7343 33.0904C38.161 33.3235 36.6945 33.9991 35.5192 35.0323C34.3439 36.0654 33.5124 37.41 33.1292 38.8968C32.7459 40.3836 32.8281 41.9462 33.3654 43.3882C33.1187 43.4899 32.9073 43.5917 32.6958 43.6595C28.8894 45.1635 24.6964 45.5126 20.6782 44.66C20.4028 44.5736 20.1115 44.5444 19.8236 44.5744C19.5357 44.6045 19.2577 44.6931 19.008 44.8344C18.7583 44.9757 18.5427 45.1664 18.3754 45.3939C18.2081 45.6214 18.093 45.8806 18.0377 46.1542C17.9823 46.4277 17.988 46.7095 18.0544 46.9808C18.1208 47.2521 18.2463 47.5068 18.4226 47.7279C18.599 47.9489 18.8221 48.1314 19.0773 48.2633C19.3325 48.3951 19.6139 48.4732 19.9028 48.4925C25.0919 49.5454 30.4959 48.9504 35.3038 46.7967C35.4395 46.7273 35.5948 46.7014 35.7469 46.7227C35.899 46.7441 36.0401 46.8116 36.1496 46.9154C36.9896 47.5383 37.9517 47.9916 38.9782 48.248C40.0047 48.5044 41.0744 48.5587 42.1232 48.4077C43.8355 48.1644 45.4208 47.3967 46.6441 46.2183C47.8674 45.04 48.6636 43.5136 48.9148 41.8656C49.1659 40.2175 48.8586 38.5355 48.0384 37.0687C47.2182 35.6019 45.9287 34.4285 44.3611 33.7223ZM40.8368 44.6091C40.3115 44.6069 39.7918 44.5052 39.3074 44.3097C38.823 44.1142 38.3833 43.8287 38.0135 43.4697C37.6437 43.1107 37.351 42.6851 37.1522 42.2172C36.9533 41.7493 36.8521 41.2483 36.8544 40.7428C36.8579 39.9815 37.0959 39.2382 37.5384 38.6071C37.9808 37.9759 38.6078 37.4852 39.34 37.197C40.0722 36.9087 40.8768 36.8359 41.6521 36.9877C42.4273 37.1395 43.1383 37.5092 43.6953 38.0499C44.2522 38.5906 44.63 39.2781 44.781 40.0255C44.9319 40.7728 44.8491 41.5464 44.5432 42.2485C44.2372 42.9506 43.7218 43.5496 43.0621 43.9698C42.4023 44.39 41.6279 44.6125 40.8368 44.6091Z" fill="#0092FF"/>
<path d="M8.5 14C11.5376 14 14 11.5376 14 8.5C14 5.46243 11.5376 3 8.5 3C5.46243 3 3 5.46243 3 8.5C3 11.5376 5.46243 14 8.5 14Z" fill="#0092FF"/>
<path d="M40.5 15C43.5376 15 46 12.5376 46 9.5C46 6.46243 43.5376 4 40.5 4C37.4624 4 35 6.46243 35 9.5C35 12.5376 37.4624 15 40.5 15Z" fill="#0092FF"/>
<path d="M40.5 45C43.5376 45 46 42.5376 46 39.5C46 36.4624 43.5376 34 40.5 34C37.4624 34 35 36.4624 35 39.5C35 42.5376 37.4624 45 40.5 45Z" fill="#0092FF"/>
<path d="M9.5 46C12.5376 46 15 43.5376 15 40.5C15 37.4624 12.5376 35 9.5 35C6.46243 35 4 37.4624 4 40.5C4 43.5376 6.46243 46 9.5 46Z" fill="#0092FF"/>
</g>
<defs>
<clipPath id="clip0_876_75404">
<rect width="330" height="49" fill="white"/>
</clipPath>
</defs>
</svg>
