<svg width="302" height="239" viewBox="0 0 302 239" fill="none" xmlns="http://www.w3.org/2000/svg">
<rect width="302" height="239" rx="8.94815" fill="white"/>
<circle cx="151" cy="96" r="56" fill="#BDF1DA" fill-opacity="0.4"/>
<circle cx="151" cy="96" r="45" fill="#BDF1DA"/>
<path d="M126 95.5463C126.155 94.6706 126.484 93.8362 126.967 93.094C127.378 92.5274 127.901 92.054 128.502 91.7037C129.103 91.3533 129.768 91.1337 130.457 91.0587C131.145 90.9838 131.842 91.0551 132.502 91.2681C133.162 91.4812 133.771 91.8313 134.291 92.2964C134.943 92.8927 135.544 93.5412 136.166 94.1748L144.223 102.337L144.714 102.814C144.818 102.633 144.935 102.461 145.065 102.299C152.458 94.7711 159.853 87.2478 167.251 79.7294C167.684 79.2278 168.209 78.8178 168.798 78.5229C169.386 78.228 170.026 78.0539 170.681 78.0107C171.336 77.9674 171.992 78.0558 172.613 78.2708C173.234 78.4858 173.808 78.8231 174.301 79.2636C174.794 79.7041 175.196 80.2391 175.486 80.838C175.776 81.4369 175.947 82.0881 175.99 82.7542C176.032 83.4204 175.945 84.0886 175.734 84.7206C175.523 85.3527 175.191 85.9361 174.758 86.4378C174.605 86.6241 174.436 86.8031 174.26 86.9819C165.642 95.7575 157.019 104.533 148.391 113.308C147.857 113.901 147.196 114.36 146.459 114.65C145.722 114.939 144.929 115.052 144.142 114.978C143.099 114.895 142.111 114.465 141.33 113.756C141.11 113.554 140.905 113.346 140.7 113.137C136.598 108.963 132.511 104.774 128.388 100.63C127.252 99.4967 126.264 98.319 126.037 96.6494L126 95.5463Z" fill="#0FBD70"/>
<path d="M103.288 179.092C103.212 178.323 102.884 177.725 102.306 177.299C101.728 176.874 100.943 176.661 99.9513 176.661C99.2777 176.661 98.7089 176.756 98.245 176.947C97.781 177.131 97.4251 177.388 97.1773 177.719C96.9358 178.049 96.815 178.424 96.815 178.844C96.8023 179.193 96.8754 179.498 97.0343 179.759C97.1995 180.019 97.4251 180.245 97.7111 180.436C97.9971 180.62 98.3276 180.782 98.7025 180.922C99.0775 181.055 99.4779 181.17 99.9037 181.265L101.658 181.685C102.509 181.875 103.291 182.129 104.003 182.447C104.715 182.765 105.331 183.156 105.852 183.62C106.373 184.084 106.777 184.63 107.063 185.259C107.355 185.889 107.505 186.61 107.511 187.423C107.505 188.618 107.199 189.654 106.596 190.531C105.998 191.402 105.134 192.078 104.003 192.561C102.878 193.038 101.521 193.276 99.9323 193.276C98.3562 193.276 96.9834 193.035 95.8141 192.552C94.6511 192.069 93.7423 191.354 93.0877 190.407C92.4395 189.454 92.0995 188.275 92.0677 186.87H96.0619C96.1064 187.525 96.2939 188.072 96.6244 188.51C96.9612 188.942 97.4092 189.269 97.9685 189.492C98.5341 189.708 99.1728 189.816 99.8846 189.816C100.584 189.816 101.191 189.714 101.705 189.511C102.226 189.308 102.63 189.025 102.916 188.663C103.202 188.3 103.345 187.884 103.345 187.414C103.345 186.975 103.215 186.607 102.954 186.308C102.7 186.009 102.325 185.755 101.829 185.545C101.34 185.336 100.739 185.145 100.028 184.973L97.9018 184.44C96.2558 184.039 94.9561 183.413 94.0028 182.562C93.0496 181.71 92.5761 180.563 92.5824 179.12C92.5761 177.938 92.8907 176.905 93.5262 176.022C94.1681 175.139 95.0483 174.449 96.1668 173.953C97.2853 173.458 98.5564 173.21 99.9799 173.21C101.429 173.21 102.694 173.458 103.774 173.953C104.861 174.449 105.706 175.139 106.31 176.022C106.913 176.905 107.225 177.929 107.244 179.092H103.288ZM119.601 186.766V178.358H123.662V193H119.763V190.34H119.61C119.28 191.198 118.73 191.888 117.961 192.409C117.199 192.93 116.268 193.191 115.168 193.191C114.189 193.191 113.328 192.968 112.585 192.523C111.841 192.078 111.26 191.446 110.84 190.626C110.427 189.807 110.217 188.825 110.211 187.681V178.358H114.272V186.956C114.278 187.82 114.51 188.504 114.968 189.006C115.425 189.508 116.039 189.759 116.808 189.759C117.297 189.759 117.755 189.648 118.18 189.425C118.606 189.196 118.949 188.86 119.21 188.415C119.477 187.97 119.607 187.42 119.601 186.766ZM133.526 193.286C132.026 193.286 130.736 192.968 129.656 192.333C128.582 191.691 127.755 190.801 127.177 189.664C126.605 188.526 126.319 187.217 126.319 185.736C126.319 184.236 126.608 182.921 127.187 181.789C127.771 180.652 128.601 179.765 129.675 179.13C130.749 178.488 132.026 178.167 133.507 178.167C134.784 178.167 135.903 178.399 136.862 178.863C137.822 179.327 138.582 179.978 139.141 180.817C139.7 181.656 140.008 182.641 140.065 183.772H136.233C136.125 183.041 135.839 182.454 135.375 182.009C134.918 181.557 134.317 181.332 133.574 181.332C132.944 181.332 132.395 181.503 131.924 181.847C131.461 182.183 131.098 182.676 130.838 183.324C130.577 183.972 130.447 184.757 130.447 185.679C130.447 186.613 130.574 187.407 130.828 188.062C131.089 188.717 131.454 189.215 131.924 189.559C132.395 189.902 132.944 190.073 133.574 190.073C134.038 190.073 134.454 189.978 134.822 189.787C135.197 189.597 135.506 189.32 135.747 188.958C135.995 188.589 136.157 188.148 136.233 187.633H140.065C140.002 188.752 139.697 189.737 139.15 190.588C138.61 191.433 137.863 192.094 136.91 192.571C135.957 193.048 134.829 193.286 133.526 193.286ZM149.281 193.286C147.782 193.286 146.491 192.968 145.411 192.333C144.337 191.691 143.511 190.801 142.932 189.664C142.36 188.526 142.075 187.217 142.075 185.736C142.075 184.236 142.364 182.921 142.942 181.789C143.527 180.652 144.356 179.765 145.43 179.13C146.504 178.488 147.782 178.167 149.262 178.167C150.54 178.167 151.658 178.399 152.618 178.863C153.577 179.327 154.337 179.978 154.896 180.817C155.455 181.656 155.764 182.641 155.821 183.772H151.989C151.881 183.041 151.595 182.454 151.131 182.009C150.673 181.557 150.073 181.332 149.329 181.332C148.7 181.332 148.15 181.503 147.68 181.847C147.216 182.183 146.854 182.676 146.593 183.324C146.333 183.972 146.202 184.757 146.202 185.679C146.202 186.613 146.329 187.407 146.584 188.062C146.844 188.717 147.21 189.215 147.68 189.559C148.15 189.902 148.7 190.073 149.329 190.073C149.793 190.073 150.209 189.978 150.578 189.787C150.953 189.597 151.261 189.32 151.502 188.958C151.75 188.589 151.912 188.148 151.989 187.633H155.821C155.757 188.752 155.452 189.737 154.906 190.588C154.366 191.433 153.619 192.094 152.665 192.571C151.712 193.048 150.584 193.286 149.281 193.286ZM165.094 193.286C163.588 193.286 162.291 192.981 161.205 192.371C160.124 191.754 159.292 190.884 158.707 189.759C158.122 188.628 157.83 187.29 157.83 185.746C157.83 184.239 158.122 182.917 158.707 181.78C159.292 180.642 160.115 179.756 161.176 179.12C162.244 178.485 163.496 178.167 164.932 178.167C165.898 178.167 166.797 178.323 167.63 178.634C168.469 178.939 169.199 179.4 169.822 180.016C170.451 180.633 170.941 181.408 171.29 182.342C171.64 183.27 171.815 184.357 171.815 185.603V186.718H159.45V184.201H167.992C167.992 183.617 167.865 183.099 167.611 182.647C167.356 182.196 167.004 181.843 166.552 181.589C166.108 181.329 165.59 181.198 164.999 181.198C164.382 181.198 163.836 181.341 163.359 181.627C162.889 181.907 162.52 182.285 162.253 182.762C161.986 183.232 161.85 183.756 161.843 184.335V186.727C161.843 187.452 161.977 188.078 162.244 188.605C162.517 189.133 162.901 189.54 163.397 189.826C163.893 190.112 164.481 190.255 165.161 190.255C165.612 190.255 166.025 190.191 166.4 190.064C166.775 189.937 167.096 189.746 167.363 189.492C167.63 189.238 167.833 188.926 167.973 188.558L171.729 188.806C171.538 189.708 171.147 190.496 170.556 191.17C169.972 191.837 169.215 192.358 168.287 192.733C167.366 193.102 166.301 193.286 165.094 193.286ZM186.648 182.533L182.93 182.762C182.866 182.444 182.73 182.158 182.52 181.904C182.31 181.643 182.034 181.437 181.691 181.284C181.354 181.125 180.95 181.046 180.48 181.046C179.851 181.046 179.32 181.179 178.888 181.446C178.456 181.707 178.24 182.056 178.24 182.495C178.24 182.844 178.379 183.14 178.659 183.381C178.939 183.623 179.419 183.817 180.099 183.963L182.749 184.497C184.172 184.789 185.234 185.259 185.933 185.908C186.632 186.556 186.981 187.407 186.981 188.462C186.981 189.422 186.698 190.264 186.133 190.989C185.574 191.713 184.805 192.279 183.826 192.685C182.854 193.086 181.732 193.286 180.461 193.286C178.522 193.286 176.978 192.882 175.828 192.075C174.684 191.262 174.013 190.156 173.816 188.758L177.811 188.548C177.931 189.139 178.224 189.59 178.688 189.902C179.152 190.207 179.746 190.359 180.47 190.359C181.182 190.359 181.754 190.223 182.186 189.949C182.625 189.67 182.847 189.311 182.854 188.872C182.847 188.504 182.692 188.202 182.386 187.967C182.081 187.725 181.611 187.541 180.976 187.414L178.44 186.909C177.01 186.623 175.945 186.127 175.246 185.421C174.554 184.716 174.207 183.817 174.207 182.724C174.207 181.783 174.462 180.973 174.97 180.293C175.485 179.613 176.206 179.088 177.134 178.72C178.068 178.351 179.161 178.167 180.413 178.167C182.263 178.167 183.718 178.558 184.779 179.339C185.847 180.121 186.47 181.186 186.648 182.533ZM201.721 182.533L198.004 182.762C197.94 182.444 197.803 182.158 197.594 181.904C197.384 181.643 197.108 181.437 196.764 181.284C196.428 181.125 196.024 181.046 195.554 181.046C194.925 181.046 194.394 181.179 193.962 181.446C193.53 181.707 193.313 182.056 193.313 182.495C193.313 182.844 193.453 183.14 193.733 183.381C194.013 183.623 194.492 183.817 195.172 183.963L197.822 184.497C199.246 184.789 200.307 185.259 201.006 185.908C201.706 186.556 202.055 187.407 202.055 188.462C202.055 189.422 201.772 190.264 201.207 190.989C200.647 191.713 199.878 192.279 198.9 192.685C197.927 193.086 196.806 193.286 195.535 193.286C193.596 193.286 192.052 192.882 190.902 192.075C189.758 191.262 189.087 190.156 188.89 188.758L192.884 188.548C193.005 189.139 193.298 189.59 193.762 189.902C194.225 190.207 194.82 190.359 195.544 190.359C196.256 190.359 196.828 190.223 197.26 189.949C197.699 189.67 197.921 189.311 197.927 188.872C197.921 188.504 197.765 188.202 197.46 187.967C197.155 187.725 196.685 187.541 196.049 187.414L193.514 186.909C192.084 186.623 191.019 186.127 190.32 185.421C189.627 184.716 189.281 183.817 189.281 182.724C189.281 181.783 189.535 180.973 190.044 180.293C190.558 179.613 191.28 179.088 192.208 178.72C193.142 178.351 194.235 178.167 195.487 178.167C197.336 178.167 198.792 178.558 199.853 179.339C200.921 180.121 201.543 181.186 201.721 182.533ZM209.464 173.477L209.093 187.147H205.604L205.222 173.477H209.464ZM207.348 193.248C206.719 193.248 206.179 193.025 205.728 192.581C205.276 192.129 205.054 191.589 205.06 190.96C205.054 190.337 205.276 189.803 205.728 189.358C206.179 188.914 206.719 188.691 207.348 188.691C207.952 188.691 208.483 188.914 208.94 189.358C209.398 189.803 209.63 190.337 209.636 190.96C209.63 191.379 209.518 191.764 209.302 192.113C209.093 192.457 208.816 192.733 208.473 192.943C208.13 193.146 207.755 193.248 207.348 193.248Z" fill="#0FBD70"/>
</svg>
